<svg width="210" height="25" viewBox="0 0 210 25" fill="none" xmlns="http://www.w3.org/2000/svg">
<g clip-path="url(#clip0_88_5561)">
<g clip-path="url(#clip1_88_5561)">
<g clip-path="url(#clip2_88_5561)">
<path opacity="0.07" d="M35 0.559998H3C1.3 0.559998 0 1.86 0 3.56V21.56C0 23.26 1.4 24.56 3 24.56H35C36.7 24.56 38 23.26 38 21.56V3.56C38 1.86 36.6 0.559998 35 0.559998Z" fill="black"/>
<path d="M35 1.56C36.1 1.56 37 2.46 37 3.56V21.56C37 22.66 36.1 23.56 35 23.56H3C1.9 23.56 1 22.66 1 21.56V3.56C1 2.46 1.9 1.56 3 1.56H35Z" fill="white"/>
<path d="M28.3 10.66H28C27.6 11.66 27.3 12.16 27 13.66H28.9C28.6 12.16 28.6 11.46 28.3 10.66ZM31.2 16.56H29.5C29.4 16.56 29.4 16.56 29.3 16.46L29.1 15.56L29 15.36H26.6C26.5 15.36 26.4 15.36 26.4 15.56L26.1 16.46C26.1 16.56 26 16.56 26 16.56H23.9L24.1 16.06L27 9.26C27 8.76 27.3 8.56 27.8 8.56H29.3C29.4 8.56 29.5 8.56 29.5 8.76L30.9 15.26C31 15.66 31.1 15.96 31.1 16.36C31.2 16.46 31.2 16.46 31.2 16.56ZM17.8 16.26L18.2 14.46C18.3 14.46 18.4 14.56 18.4 14.56C19.1 14.86 19.8 15.06 20.5 14.96C20.7 14.96 21 14.86 21.2 14.76C21.7 14.56 21.7 14.06 21.3 13.66C21.1 13.46 20.8 13.36 20.5 13.16C20.1 12.96 19.7 12.76 19.4 12.46C18.2 11.46 18.6 10.06 19.3 9.36C19.9 8.96 20.2 8.56 21 8.56C22.2 8.56 23.5 8.56 24.1 8.76H24.2C24.1 9.36 24 9.86 23.8 10.46C23.3 10.26 22.8 10.06 22.3 10.06C22 10.06 21.7 10.06 21.4 10.16C21.2 10.16 21.1 10.26 21 10.36C20.8 10.56 20.8 10.86 21 11.06L21.5 11.46C21.9 11.66 22.3 11.86 22.6 12.06C23.1 12.36 23.6 12.86 23.7 13.46C23.9 14.36 23.6 15.16 22.8 15.76C22.3 16.16 22.1 16.36 21.4 16.36C20 16.36 18.9 16.46 18 16.16C17.9 16.36 17.9 16.36 17.8 16.26ZM14.3 16.56C14.4 15.86 14.4 15.86 14.5 15.56C15 13.36 15.5 11.06 15.9 8.86C16 8.66 16 8.56 16.2 8.56H18C17.8 9.76 17.6 10.66 17.3 11.76C17 13.26 16.7 14.76 16.3 16.26C16.3 16.46 16.2 16.46 16 16.46M5 8.76C5 8.66 5.2 8.56 5.3 8.56H8.7C9.2 8.56 9.6 8.86 9.7 9.36L10.6 13.76C10.6 13.86 10.6 13.86 10.7 13.96C10.7 13.86 10.8 13.86 10.8 13.86L12.9 8.76C12.8 8.66 12.9 8.56 13 8.56H15.1C15.1 8.66 15.1 8.66 15 8.76L11.9 16.06C11.8 16.26 11.8 16.36 11.7 16.46C11.6 16.56 11.4 16.46 11.2 16.46H9.7C9.6 16.46 9.5 16.46 9.5 16.26L7.9 10.06C7.7 9.86 7.4 9.56 7 9.46C6.4 9.16 5.3 8.96 5.1 8.96L5 8.76Z" fill="#142688"/>
</g>
</g>
</g>
<g clip-path="url(#clip3_88_5561)">
<g clip-path="url(#clip4_88_5561)">
<g clip-path="url(#clip5_88_5561)">
<path opacity="0.07" d="M78 0.559998H46C44.3 0.559998 43 1.86 43 3.56V21.56C43 23.26 44.4 24.56 46 24.56H78C79.7 24.56 81 23.26 81 21.56V3.56C81 1.86 79.6 0.559998 78 0.559998Z" fill="black"/>
<path d="M78 1.56C79.1 1.56 80 2.46 80 3.56V21.56C80 22.66 79.1 23.56 78 23.56H46C44.9 23.56 44 22.66 44 21.56V3.56C44 2.46 44.9 1.56 46 1.56H78Z" fill="white"/>
<path d="M58 19.56C61.866 19.56 65 16.426 65 12.56C65 8.694 61.866 5.56 58 5.56C54.134 5.56 51 8.694 51 12.56C51 16.426 54.134 19.56 58 19.56Z" fill="#EB001B"/>
<path d="M66 19.56C69.866 19.56 73 16.426 73 12.56C73 8.694 69.866 5.56 66 5.56C62.134 5.56 59 8.694 59 12.56C59 16.426 62.134 19.56 66 19.56Z" fill="#00A2E5"/>
<path d="M65 12.56C65 10.16 63.8 8.05999 62 6.85999C60.2 8.15999 59 10.26 59 12.56C59 14.86 60.2 17.06 62 18.26C63.8 17.06 65 14.96 65 12.56Z" fill="#7375CF"/>
</g>
</g>
</g>
<g clip-path="url(#clip6_88_5561)">
<g clip-path="url(#clip7_88_5561)">
<g clip-path="url(#clip8_88_5561)">
<path opacity="0.07" d="M121 0.559998H89C87.3 0.559998 86 1.86 86 3.56V21.56C86 23.26 87.4 24.56 89 24.56H121C122.7 24.56 124 23.26 124 21.56V3.56C124 1.86 122.6 0.559998 121 0.559998Z" fill="black"/>
<path d="M121 1.56C122.1 1.56 123 2.46 123 3.56V21.56C123 22.66 122.1 23.56 121 23.56H89C87.9 23.56 87 22.66 87 21.56V3.56C87 2.46 87.9 1.56 89 1.56H121Z" fill="white"/>
<path d="M101 19.56C104.866 19.56 108 16.426 108 12.56C108 8.694 104.866 5.56 101 5.56C97.134 5.56 94 8.694 94 12.56C94 16.426 97.134 19.56 101 19.56Z" fill="#EB001B"/>
<path d="M109 19.56C112.866 19.56 116 16.426 116 12.56C116 8.694 112.866 5.56 109 5.56C105.134 5.56 102 8.694 102 12.56C102 16.426 105.134 19.56 109 19.56Z" fill="#F79E1B"/>
<path d="M108 12.56C108 10.16 106.8 8.05999 105 6.85999C103.2 8.15999 102 10.26 102 12.56C102 14.86 103.2 17.06 105 18.26C106.8 17.06 108 14.96 108 12.56Z" fill="#FF5F00"/>
</g>
</g>
</g>
<g clip-path="url(#clip9_88_5561)">
<g clip-path="url(#clip10_88_5561)">
<g clip-path="url(#clip11_88_5561)">
<path opacity="0.07" d="M164 0.559998H132C130.3 0.559998 129 1.86 129 3.56V21.56C129 23.26 130.4 24.56 132 24.56H164C165.7 24.56 167 23.26 167 21.56V3.56C167 1.86 165.6 0.559998 164 0.559998Z" fill="black"/>
<path d="M164 1.56C165.1 1.56 166 2.46 166 3.56V21.56C166 22.66 165.1 23.56 164 23.56H132C130.9 23.56 130 22.66 130 21.56V3.56C130 2.46 130.9 1.56 132 1.56H164Z" fill="white"/>
<path d="M132.57 7.71998H131V13.22H132.57C133.4 13.22 134 13.02 134.53 12.59C135.16 12.07 135.53 11.29 135.53 10.48C135.52 8.84998 134.31 7.71998 132.57 7.71998ZM133.83 11.86C133.49 12.16 133.06 12.3 132.36 12.3H132.07V8.65998H132.36C133.05 8.65998 133.47 8.77998 133.83 9.09998C134.2 9.42998 134.42 9.93998 134.42 10.47C134.42 11 134.2 11.53 133.83 11.86ZM136.02 7.71998H137.09V13.22H136.02V7.71998ZM139.71 9.82998C139.07 9.58998 138.88 9.42998 138.88 9.13998C138.88 8.78998 139.22 8.52998 139.68 8.52998C140 8.52998 140.27 8.65998 140.54 8.97998L141.1 8.24998C140.64 7.84998 140.09 7.63998 139.48 7.63998C138.51 7.63998 137.76 8.31998 137.76 9.21998C137.76 9.97998 138.11 10.37 139.11 10.73C139.53 10.88 139.74 10.98 139.85 11.04C140.06 11.18 140.17 11.38 140.17 11.61C140.17 12.06 139.82 12.39 139.34 12.39C138.83 12.39 138.42 12.13 138.17 11.66L137.48 12.33C137.97 13.06 138.57 13.38 139.38 13.38C140.49 13.38 141.28 12.64 141.28 11.57C141.3 10.68 140.93 10.28 139.71 9.82998ZM141.63 10.48C141.63 12.1 142.9 13.35 144.53 13.35C144.99 13.35 145.39 13.26 145.87 13.03V11.77C145.44 12.2 145.06 12.37 144.58 12.37C143.5 12.37 142.73 11.59 142.73 10.47C142.73 9.40998 143.52 8.57998 144.53 8.57998C145.04 8.57998 145.43 8.75998 145.87 9.19998V7.93998C145.4 7.69998 145.01 7.59998 144.55 7.59998C142.94 7.59998 141.63 8.87998 141.63 10.48ZM154.39 11.42L152.92 7.71998H151.75L154.08 13.36H154.66L157.03 7.71998H155.87L154.39 11.42ZM157.52 13.22H160.56V12.29H158.59V10.81H160.49V9.87998H158.59V8.65998H160.56V7.71998H157.52V13.22ZM164.81 9.34998C164.81 8.31998 164.1 7.72998 162.86 7.72998H161.27V13.23H162.34V11.02H162.48L163.96 13.23H165.28L163.55 10.91C164.36 10.74 164.81 10.19 164.81 9.34998ZM162.65 10.26H162.34V8.58998H162.67C163.34 8.58998 163.7 8.86998 163.7 9.40998C163.7 9.95998 163.34 10.26 162.65 10.26Z" fill="#231F20"/>
<path d="M149.16 13.42C149.937 13.42 150.682 13.1112 151.232 12.5615C151.782 12.0118 152.091 11.2663 152.091 10.489C152.091 9.71163 151.782 8.96612 151.232 8.41645C150.682 7.86678 149.937 7.55798 149.16 7.55798C148.382 7.55798 147.637 7.86678 147.087 8.41645C146.537 8.96612 146.229 9.71163 146.229 10.489C146.229 11.2663 146.537 12.0118 147.087 12.5615C147.637 13.1112 148.382 13.42 149.16 13.42Z" fill="url(#paint0_linear_88_5561)"/>
<path opacity="0.65" d="M149.16 13.42C149.937 13.42 150.682 13.1112 151.232 12.5615C151.782 12.0118 152.091 11.2663 152.091 10.489C152.091 9.71163 151.782 8.96612 151.232 8.41645C150.682 7.86678 149.937 7.55798 149.16 7.55798C148.382 7.55798 147.637 7.86678 147.087 8.41645C146.537 8.96612 146.229 9.71163 146.229 10.489C146.229 11.2663 146.537 12.0118 147.087 12.5615C147.637 13.1112 148.382 13.42 149.16 13.42Z" fill="url(#paint1_linear_88_5561)"/>
<path d="M165.57 8.06602C165.57 7.96602 165.5 7.91602 165.39 7.91602H165.23V8.39602H165.35V8.20602L165.49 8.39602H165.63L165.47 8.19602C165.53 8.18602 165.57 8.13602 165.57 8.06602ZM165.37 8.13602H165.35V8.00602H165.37C165.43 8.00602 165.46 8.02602 165.46 8.06602C165.46 8.11602 165.43 8.13602 165.37 8.13602Z" fill="#231F20"/>
<path d="M165.41 7.73602C165.18 7.73602 164.99 7.92602 164.99 8.15602C164.99 8.38602 165.18 8.57602 165.41 8.57602C165.64 8.57602 165.83 8.38602 165.83 8.15602C165.83 7.92602 165.64 7.73602 165.41 7.73602ZM165.41 8.50602C165.23 8.50602 165.07 8.35602 165.07 8.15602C165.07 7.96602 165.22 7.80602 165.41 7.80602C165.59 7.80602 165.74 7.96602 165.74 8.15602C165.74 8.34602 165.59 8.50602 165.41 8.50602Z" fill="#231F20"/>
<path d="M166 13.544C166 13.544 156.09 20.433 137.976 23.56H163.999C164.526 23.56 165.033 23.3515 165.407 22.9799C165.782 22.6083 165.994 22.1037 165.999 21.576L166.023 18.556L166 13.544Z" fill="#F48120"/>
</g>
</g>
</g>
<rect x="172" y="0.559998" width="38" height="24" rx="3" fill="white"/>
<rect x="172.5" y="1.06" width="37" height="23" rx="2.5" stroke="black" stroke-opacity="0.07"/>
<path d="M190.395 11.8842V13.1557H184.547V11.8842H190.395ZM188.156 9.49359V15.7045H186.791V9.49359H188.156ZM197.191 15.435V16.56H191.473V15.5932L194.25 12.5639C194.555 12.2202 194.795 11.9233 194.971 11.6733C195.146 11.4233 195.27 11.1987 195.34 10.9995C195.414 10.7963 195.451 10.5991 195.451 10.4077C195.451 10.1381 195.4 9.90179 195.299 9.69867C195.201 9.49164 195.057 9.32953 194.865 9.21234C194.674 9.09125 194.441 9.0307 194.168 9.0307C193.852 9.0307 193.586 9.09906 193.371 9.23578C193.156 9.3725 192.994 9.56195 192.885 9.80414C192.775 10.0424 192.721 10.3159 192.721 10.6245H191.309C191.309 10.1284 191.422 9.67523 191.648 9.26508C191.875 8.85101 192.203 8.52289 192.633 8.2807C193.062 8.03461 193.58 7.91156 194.186 7.91156C194.756 7.91156 195.24 8.00726 195.639 8.19867C196.037 8.39008 196.34 8.66156 196.547 9.01312C196.758 9.36469 196.863 9.7807 196.863 10.2612C196.863 10.5268 196.82 10.7905 196.734 11.0522C196.648 11.3139 196.525 11.5756 196.365 11.8373C196.209 12.0952 196.023 12.3549 195.809 12.6166C195.594 12.8745 195.357 13.1362 195.1 13.4018L193.254 15.435H197.191Z" fill="#A39878"/>
<defs>
<linearGradient id="paint0_linear_88_5561" x1="150.657" y1="12.835" x2="148.632" y2="9.66398" gradientUnits="userSpaceOnUse">
<stop stop-color="#F89F20"/>
<stop offset="0.25" stop-color="#F79A20"/>
<stop offset="0.533" stop-color="#F68D20"/>
<stop offset="0.62" stop-color="#F58720"/>
<stop offset="0.723" stop-color="#F48120"/>
<stop offset="1" stop-color="#F37521"/>
</linearGradient>
<linearGradient id="paint1_linear_88_5561" x1="150.338" y1="12.792" x2="147.378" y2="7.00598" gradientUnits="userSpaceOnUse">
<stop stop-color="#F58720"/>
<stop offset="0.359" stop-color="#E16F27"/>
<stop offset="0.703" stop-color="#D4602C"/>
<stop offset="0.982" stop-color="#D05B2E"/>
</linearGradient>
<clipPath id="clip0_88_5561">
<rect width="38" height="24" fill="white" transform="translate(0 0.559998)"/>
</clipPath>
<clipPath id="clip1_88_5561">
<rect width="38" height="24" fill="white" transform="translate(0 0.559998)"/>
</clipPath>
<clipPath id="clip2_88_5561">
<rect width="38" height="24" fill="white" transform="translate(0 0.559998)"/>
</clipPath>
<clipPath id="clip3_88_5561">
<rect width="38" height="24" fill="white" transform="translate(43 0.559998)"/>
</clipPath>
<clipPath id="clip4_88_5561">
<rect width="38" height="24" fill="white" transform="translate(43 0.559998)"/>
</clipPath>
<clipPath id="clip5_88_5561">
<rect width="38" height="24" fill="white" transform="translate(43 0.559998)"/>
</clipPath>
<clipPath id="clip6_88_5561">
<rect width="38" height="24" fill="white" transform="translate(86 0.559998)"/>
</clipPath>
<clipPath id="clip7_88_5561">
<rect width="38" height="24" fill="white" transform="translate(86 0.559998)"/>
</clipPath>
<clipPath id="clip8_88_5561">
<rect width="38" height="24" fill="white" transform="translate(86 0.559998)"/>
</clipPath>
<clipPath id="clip9_88_5561">
<rect width="38" height="24" fill="white" transform="translate(129 0.559998)"/>
</clipPath>
<clipPath id="clip10_88_5561">
<rect width="38" height="24" fill="white" transform="translate(129 0.559998)"/>
</clipPath>
<clipPath id="clip11_88_5561">
<rect width="38" height="24" fill="white" transform="translate(129 0.559998)"/>
</clipPath>
</defs>
</svg>
