<svg width="91" height="91" viewBox="0 0 91 91" fill="none" xmlns="http://www.w3.org/2000/svg">
<circle cx="45.288" cy="45.288" r="45.288" fill="#34383B"/>
<g clip-path="url(#clip0_253_2226)">
<path d="M35.7495 67.3885L19.1445 50.7809C17.8167 49.3793 17.0882 47.515 17.1139 45.5845C17.1397 43.6538 17.9177 41.8095 19.2824 40.444C20.6471 39.0782 22.4909 38.2989 24.4214 38.2718C26.3519 38.2446 28.2168 38.9718 29.6194 40.2985L40.182 50.861L59.9648 24.4848C60.5486 23.7056 61.2803 23.049 62.1179 22.5525C62.9556 22.0561 63.8829 21.7295 64.8467 21.5913C65.8106 21.4532 66.7919 21.5063 67.7355 21.7475C68.6788 21.9888 69.5653 22.4134 70.3446 22.9973C71.1236 23.5812 71.7802 24.3128 72.2768 25.1504C72.7731 25.9881 73.0999 26.9153 73.2379 27.8791C73.3761 28.843 73.323 29.8246 73.0819 30.7679C72.8405 31.7113 72.4158 32.5978 71.8321 33.3771L46.9232 66.5947C46.2856 67.4443 45.4733 68.147 44.5405 68.6554C43.6079 69.1637 42.577 69.4657 41.5175 69.5411C40.4579 69.6162 39.3947 69.4632 38.3995 69.0918C37.4044 68.7205 36.5007 68.1395 35.7495 67.3885Z" fill="#F7F7F7" stroke="#34383B" stroke-width="3.75624" stroke-linejoin="round"/>
</g>
<defs>
<clipPath id="clip0_253_2226">
<rect width="60.0998" height="60.0998" fill="white" transform="translate(15.0957 15.0964)"/>
</clipPath>
</defs>
</svg>
