<svg width="187" height="48" viewBox="0 0 187 48" fill="none" xmlns="http://www.w3.org/2000/svg">
<g clip-path="url(#clip0_88_5451)">
<g clip-path="url(#clip1_88_5451)">
<rect width="187" height="54" transform="translate(0 -3)" fill="#F7F7F7"/>
<rect y="-3" width="187" height="54" rx="4" fill="#FFC439"/>
<g clip-path="url(#clip2_88_5451)">
<g clip-path="url(#clip3_88_5451)">
<g clip-path="url(#clip4_88_5451)">
<path d="M64.8075 14.1H58.9575C58.5825 14.1 58.2075 14.4 58.1325 14.775L55.8075 29.775C55.7325 30.075 55.9575 30.3 56.2575 30.3H59.0325C59.4075 30.3 59.7825 30 59.8575 29.625L60.4575 25.575C60.5325 25.2 60.8325 24.9 61.2825 24.9H63.1575C66.9825 24.9 69.2325 23.025 69.8325 19.35C70.0575 17.775 69.8325 16.5 69.0825 15.6C68.2575 14.625 66.7575 14.1 64.8075 14.1ZM65.4825 19.575C65.1825 21.675 63.5325 21.675 62.0325 21.675H61.1325L61.7325 17.775C61.7325 17.55 61.9575 17.4 62.1825 17.4H62.5575C63.6075 17.4 64.5825 17.4 65.1075 18C65.4825 18.3 65.6325 18.825 65.4825 19.575Z" fill="#003087"/>
<path d="M82.2073 19.5H79.4323C79.2073 19.5 78.9823 19.65 78.9823 19.875L78.8323 20.625L78.6073 20.325C78.0073 19.425 76.6573 19.125 75.3073 19.125C72.2323 19.125 69.6073 21.45 69.0823 24.75C68.7823 26.4 69.1573 27.975 70.1323 29.025C70.9573 30 72.2323 30.45 73.6573 30.45C76.1323 30.45 77.5573 28.875 77.5573 28.875L77.4073 29.625C77.3323 29.925 77.5573 30.225 77.8573 30.225H80.4073C80.7823 30.225 81.1573 29.925 81.2323 29.55L82.7323 19.95C82.8073 19.8 82.5073 19.5 82.2073 19.5ZM78.3823 24.9C78.0823 26.475 76.8823 27.6 75.2323 27.6C74.4073 27.6 73.8073 27.375 73.3573 26.85C72.9073 26.325 72.7573 25.65 72.9073 24.9C73.1323 23.325 74.4823 22.2 76.0573 22.2C76.8823 22.2 77.4823 22.5 77.9323 22.95C78.3073 23.475 78.4573 24.15 78.3823 24.9Z" fill="#003087"/>
<path d="M97.1331 19.5H94.3581C94.0581 19.5 93.8331 19.65 93.6831 19.875L89.7831 25.575L88.1331 20.1C88.0581 19.725 87.6831 19.5 87.3831 19.5H84.6081C84.3081 19.5 84.0081 19.8 84.1581 20.175L87.2331 29.25L84.3081 33.3C84.0831 33.6 84.3081 34.05 84.6831 34.05H87.4581C87.7581 34.05 87.9831 33.9 88.1331 33.675L97.5081 20.175C97.7331 19.95 97.5081 19.5 97.1331 19.5Z" fill="#003087"/>
<path d="M106.433 14.1H100.583C100.208 14.1 99.8325 14.4 99.7575 14.775L97.4325 29.7C97.3575 30 97.5825 30.225 97.8825 30.225H100.883C101.183 30.225 101.408 30 101.408 29.775L102.083 25.5C102.158 25.125 102.458 24.825 102.908 24.825H104.783C108.608 24.825 110.858 22.95 111.458 19.275C111.683 17.7 111.458 16.425 110.708 15.525C109.808 14.625 108.383 14.1 106.433 14.1ZM107.108 19.575C106.808 21.675 105.158 21.675 103.658 21.675H102.758L103.358 17.775C103.358 17.55 103.583 17.4 103.808 17.4H104.183C105.233 17.4 106.208 17.4 106.733 18C107.108 18.3 107.183 18.825 107.108 19.575Z" fill="#009CDE"/>
<path d="M123.832 19.5H121.057C120.832 19.5 120.607 19.65 120.607 19.875L120.457 20.625L120.232 20.325C119.632 19.425 118.282 19.125 116.932 19.125C113.857 19.125 111.232 21.45 110.707 24.75C110.407 26.4 110.782 27.975 111.757 29.025C112.582 30 113.857 30.45 115.282 30.45C117.757 30.45 119.182 28.875 119.182 28.875L119.032 29.625C118.957 29.925 119.182 30.225 119.482 30.225H122.032C122.407 30.225 122.782 29.925 122.857 29.55L124.357 19.95C124.357 19.8 124.132 19.5 123.832 19.5ZM119.932 24.9C119.632 26.475 118.432 27.6 116.782 27.6C115.957 27.6 115.357 27.375 114.907 26.85C114.457 26.325 114.307 25.65 114.457 24.9C114.682 23.325 116.032 22.2 117.607 22.2C118.432 22.2 119.032 22.5 119.482 22.95C119.932 23.475 120.082 24.15 119.932 24.9Z" fill="#009CDE"/>
<path d="M127.132 14.475L124.732 29.7C124.657 30 124.882 30.225 125.182 30.225H127.582C127.957 30.225 128.332 29.925 128.407 29.55L130.807 14.625C130.882 14.325 130.657 14.1 130.357 14.1H127.657C127.357 14.1 127.207 14.25 127.132 14.475Z" fill="#009CDE"/>
</g>
</g>
</g>
</g>
</g>
<defs>
<clipPath id="clip0_88_5451">
<rect width="186.98" height="48" rx="5" fill="white"/>
</clipPath>
<clipPath id="clip1_88_5451">
<rect width="187" height="54" fill="white" transform="translate(0 -3)"/>
</clipPath>
<clipPath id="clip2_88_5451">
<rect width="75.75" height="24" fill="white" transform="translate(55.6299 12)"/>
</clipPath>
<clipPath id="clip3_88_5451">
<rect width="75.75" height="24" fill="white" transform="translate(55.6299 12)"/>
</clipPath>
<clipPath id="clip4_88_5451">
<rect width="75.75" height="24" fill="white" transform="translate(55.6299 12)"/>
</clipPath>
</defs>
</svg>
