<svg width="187" height="48" viewBox="0 0 187 48" fill="none" xmlns="http://www.w3.org/2000/svg">
<rect x="0.0195312" width="186.98" height="48" rx="5" fill="#592FF4"/>
<g clip-path="url(#clip0_88_5447)">
<path fill-rule="evenodd" clip-rule="evenodd" d="M107.483 14.16C105.796 14.16 104.43 15.5062 104.43 17.1671V30.8432C104.43 32.5038 105.796 33.85 107.483 33.85H132.362C134.048 33.85 135.415 32.5038 135.415 30.8432V17.1671C135.415 15.5065 134.048 14.16 132.362 14.16H107.483ZM111.84 27.9104V24.444H114.055C116.077 24.444 117.153 23.3266 117.153 21.6338C117.153 19.9409 116.077 18.9276 114.055 18.9276H110.414V27.9104H111.84ZM111.84 20.2632H113.727C115.037 20.2632 115.68 20.7931 115.68 21.6798C115.68 22.5664 115.06 23.0963 113.786 23.0963H111.84V20.2632ZM119.668 28.0947C120.755 28.0947 121.469 27.6223 121.796 26.8164C121.89 27.7143 122.439 28.1751 123.632 27.8644L123.644 26.9084C123.164 26.9544 123.071 26.7817 123.071 26.2864V23.937C123.071 22.5551 122.147 21.7376 120.44 21.7376C118.756 21.7376 117.786 22.5667 117.786 23.9714H119.095C119.095 23.3037 119.574 22.9005 120.416 22.9005C121.305 22.9005 121.714 23.2806 121.702 23.9372V24.2366L120.194 24.3978C118.499 24.582 117.563 25.2155 117.563 26.3211C117.563 27.2309 118.218 28.0947 119.668 28.0947ZM119.96 27.0582C119.224 27.0582 118.931 26.6665 118.931 26.2749C118.931 25.7452 119.54 25.5034 120.732 25.3651L121.668 25.2615C121.609 26.2751 120.919 27.0582 119.96 27.0582ZM127.975 28.3596C127.378 29.7875 126.42 30.2136 124.923 30.2136H124.28V29.0391H124.97C125.788 29.0391 126.186 28.7857 126.618 28.0602L123.964 21.9221H125.437L127.332 26.4021L129.015 21.9221H130.453L127.975 28.3596Z" fill="white"/>
<path d="M58.7916 22.8149C56.8384 22.3974 55.9682 22.2343 55.9682 21.4928C55.9682 20.7956 56.557 20.4482 57.7348 20.4482C58.7705 20.4482 59.5277 20.8942 60.0848 21.7676C60.1269 21.835 60.2138 21.8584 60.2847 21.8222L62.4824 20.7282C62.501 20.7189 62.5175 20.7059 62.5309 20.69C62.5443 20.674 62.5542 20.6555 62.5601 20.6356C62.566 20.6156 62.5678 20.5947 62.5653 20.5741C62.5627 20.5534 62.556 20.5335 62.5454 20.5156C61.6333 18.9578 59.9482 18.1051 57.7296 18.1051C54.8141 18.1051 53.0029 19.5202 53.0029 21.7703C53.0029 24.1601 55.2087 24.7641 57.1644 25.1813C59.12 25.5988 59.993 25.7619 59.993 26.5034C59.993 27.2449 59.3569 27.5945 58.0871 27.5945C56.9145 27.5945 56.0445 27.0656 55.5187 26.0394C55.4999 26.0031 55.4676 25.9757 55.4288 25.9631C55.3899 25.9505 55.3476 25.9537 55.3111 25.972L53.1186 27.0424C53.1004 27.0515 53.0842 27.064 53.0708 27.0793C53.0575 27.0947 53.0473 27.1125 53.041 27.1318C53.0346 27.1511 53.0321 27.1715 53.0337 27.1918C53.0353 27.212 53.0409 27.2318 53.0502 27.2498C53.9204 28.9734 55.7053 29.943 58.0895 29.943C61.1259 29.943 62.9607 28.551 62.9607 26.2311C62.9607 23.9111 60.7448 23.2373 58.7916 22.8201V22.8149ZM70.5687 18.1051C69.3225 18.1051 68.2211 18.5406 67.4299 19.3155C67.3799 19.3623 67.2984 19.3286 67.2984 19.2612V14.313C67.2985 14.2927 67.2945 14.2726 67.2867 14.2539C67.2789 14.2352 67.2675 14.2182 67.253 14.204C67.2386 14.1897 67.2214 14.1785 67.2026 14.1709C67.1838 14.1634 67.1636 14.1597 67.1433 14.16H64.3935C64.3732 14.1597 64.353 14.1634 64.3342 14.1709C64.3154 14.1785 64.2982 14.1897 64.2838 14.204C64.2693 14.2182 64.2579 14.2352 64.2501 14.2539C64.2423 14.2726 64.2383 14.2927 64.2384 14.313V29.6709C64.2383 29.6912 64.2424 29.7112 64.2502 29.7299C64.258 29.7486 64.2694 29.7656 64.2839 29.7798C64.2983 29.794 64.3154 29.8052 64.3343 29.8128C64.3531 29.8203 64.3732 29.824 64.3935 29.8237H67.1433C67.1636 29.824 67.1837 29.8203 67.2025 29.8128C67.2214 29.8052 67.2385 29.794 67.2529 29.7798C67.2674 29.7656 67.2788 29.7486 67.2866 29.7299C67.2944 29.7112 67.2985 29.6912 67.2984 29.6709V22.934C67.2984 21.6328 68.3102 20.6349 69.6748 20.6349C71.0391 20.6349 72.0276 21.6121 72.0276 22.934V29.6709C72.0275 29.6912 72.0315 29.7112 72.0393 29.7299C72.0471 29.7486 72.0586 29.7656 72.073 29.7798C72.0875 29.794 72.1046 29.8052 72.1234 29.8128C72.1422 29.8203 72.1624 29.824 72.1826 29.8237H74.9325C74.9528 29.824 74.9729 29.8203 74.9917 29.8128C75.0105 29.8052 75.0277 29.794 75.0421 29.7798C75.0565 29.7656 75.068 29.7486 75.0758 29.7299C75.0836 29.7112 75.0876 29.6912 75.0876 29.6709V22.934C75.0876 20.1035 73.2053 18.1076 70.5687 18.1076V18.1051ZM80.671 17.667C79.1779 17.667 77.7742 18.1155 76.7697 18.7659C76.7366 18.7871 76.713 18.8202 76.7037 18.8584C76.6945 18.8966 76.7003 18.9369 76.72 18.9709L77.9317 21.0108C77.9765 21.0834 78.0711 21.1092 78.1447 21.065C78.9086 20.6111 79.7822 20.3746 80.671 20.381C83.071 20.381 84.8349 22.0503 84.8349 24.2558C84.8349 26.1354 83.4233 27.5271 81.633 27.5271C80.1742 27.5271 79.1621 26.6899 79.1621 25.508C79.1621 24.8315 79.4538 24.2767 80.2136 23.8853C80.2322 23.8761 80.2487 23.863 80.2621 23.847C80.2754 23.831 80.2852 23.8124 80.2909 23.7924C80.2966 23.7724 80.2981 23.7514 80.2952 23.7308C80.2923 23.7102 80.2851 23.6904 80.2741 23.6727L79.1306 21.7651C79.1119 21.7343 79.083 21.7109 79.0489 21.699C79.0148 21.6872 78.9776 21.6876 78.9438 21.7002C77.4113 22.2601 76.336 23.608 76.336 25.4173C76.336 28.1544 78.5469 30.1969 81.6306 30.1969C85.232 30.1969 87.8213 27.7372 87.8213 24.2093C87.8213 20.4275 84.8088 17.6645 80.6658 17.6645L80.671 17.667ZM95.8626 18.0845C94.4719 18.0845 93.2311 18.5898 92.3242 19.4813C92.3134 19.4921 92.2997 19.4994 92.2848 19.5023C92.2699 19.5053 92.2545 19.5038 92.2404 19.498C92.2264 19.4922 92.2144 19.4824 92.2059 19.4698C92.1974 19.4572 92.1928 19.4424 92.1927 19.4272V18.3539C92.1928 18.3336 92.1888 18.3135 92.181 18.2948C92.1731 18.2761 92.1617 18.2592 92.1472 18.245C92.1328 18.2307 92.1157 18.2195 92.0969 18.212C92.078 18.2045 92.0579 18.2007 92.0376 18.2011H89.3589C89.3387 18.2007 89.3185 18.2045 89.2997 18.212C89.2809 18.2195 89.2638 18.2307 89.2493 18.245C89.2349 18.2592 89.2234 18.2761 89.2156 18.2948C89.2078 18.3135 89.2038 18.3336 89.2038 18.3539V33.6884C89.2038 33.7086 89.2078 33.7287 89.2156 33.7475C89.2234 33.7662 89.2348 33.7832 89.2492 33.7974C89.2637 33.8117 89.2808 33.8229 89.2997 33.8304C89.3185 33.838 89.3386 33.8417 89.3589 33.8414H92.1085C92.1289 33.8417 92.149 33.838 92.1679 33.8305C92.1868 33.823 92.2039 33.8118 92.2184 33.7975C92.2329 33.7833 92.2443 33.7663 92.2522 33.7475C92.26 33.7288 92.2639 33.7087 92.2639 33.6884V28.6598C92.2639 28.5924 92.3454 28.5589 92.3951 28.6029C93.2996 29.4323 94.4955 29.9172 95.8653 29.9172C99.0907 29.9172 101.606 27.3431 101.606 23.9995C101.606 20.6556 99.088 18.0818 95.8653 18.0818L95.8626 18.0845ZM95.3448 27.32C93.5098 27.32 92.1191 25.8812 92.1191 23.9785C92.1191 22.0761 93.5071 20.6376 95.3448 20.6376C97.1826 20.6376 98.5676 22.0527 98.5676 23.9785C98.5676 25.9044 97.2005 27.3197 95.3421 27.3197L95.3448 27.32Z" fill="white"/>
</g>
<defs>
<clipPath id="clip0_88_5447">
<rect width="84" height="19.69" fill="white" transform="translate(51.5 14.16)"/>
</clipPath>
</defs>
</svg>
