<svg width="262" height="31" viewBox="0 0 262 31" fill="none" xmlns="http://www.w3.org/2000/svg">
<g opacity="0.8" clip-path="url(#clip0_47_3447)">
<path opacity="0.07" d="M28.6665 4.00012H7.33313C6.1998 4.00012 5.33313 4.86679 5.33313 6.00012V18.0001C5.33313 19.1335 6.26646 20.0001 7.33313 20.0001H28.6665C29.7998 20.0001 30.6665 19.1335 30.6665 18.0001V6.00012C30.6665 4.86679 29.7331 4.00012 28.6665 4.00012Z" fill="black"/>
<path d="M28.6667 4.66589C29.4 4.66589 30 5.26589 30 5.99923V17.9992C30 18.7326 29.4 19.3326 28.6667 19.3326H7.33333C6.6 19.3326 6 18.7326 6 17.9992V5.99923C6 5.26589 6.6 4.66589 7.33333 4.66589H28.6667Z" fill="#006FCF"/>
<path d="M20.0077 17.2903V11.6763L29.9997 11.6849V13.2356L28.845 14.4703L29.9997 15.7149V17.2983H28.1557L27.1757 16.2169L26.2024 17.3023L20.0077 17.2889V17.2903Z" fill="white"/>
<path d="M20.675 16.6736V12.2936H24.3897V13.3022H21.8777V13.9876H24.3297V14.9796H21.8777V15.6529H24.3897V16.6736H20.675Z" fill="#006FCF"/>
<path d="M24.3712 16.674L26.4265 14.4813L24.3712 12.2933H25.9619L27.2179 13.682L28.4779 12.294H29.9999V12.328L27.9885 14.4813L29.9999 16.6127V16.6747H28.4619L27.1839 15.2727L25.9185 16.6753H24.3712V16.674Z" fill="#006FCF"/>
<path d="M20.4732 6.69226H22.8825L23.7285 8.61293V6.69226H26.7019L27.2152 8.13159L27.7292 6.69226H29.9999V12.3063H17.9999L20.4732 6.69226Z" fill="white"/>
<path d="M20.9297 7.30237L18.9857 11.6797H20.3191L20.6857 10.803H22.6724L23.0391 11.6797H24.4057L22.4697 7.30237H20.9297ZM21.0964 9.82037L21.6797 8.42704L22.2617 9.82037H21.0964Z" fill="#006FCF"/>
<path d="M24.3871 11.6789V7.3009L26.2611 7.30757L27.2264 9.9989L28.1971 7.30157H29.9998V11.6782L28.8398 11.6889V8.68224L27.7438 11.6782H26.6838L25.5664 8.67224V11.6789H24.3878H24.3871Z" fill="#006FCF"/>
</g>
<g opacity="0.8" clip-path="url(#clip1_47_3447)">
<path d="M64.2583 3.99902H43.7421C43.6566 3.99902 43.571 3.99902 43.4857 3.99948C43.4137 4.00008 43.3418 4.00084 43.2698 4.0028C43.1129 4.00703 42.9546 4.01639 42.7997 4.04417C42.6444 4.07079 42.4938 4.12041 42.3531 4.19139C42.0702 4.3353 41.8402 4.56527 41.6963 4.84821C41.6252 4.989 41.5755 5.13966 41.5491 5.29515C41.521 5.45022 41.5118 5.60831 41.5075 5.76504C41.5057 5.837 41.5046 5.90898 41.5042 5.98096C41.5039 6.06612 41.5039 6.15158 41.5039 6.2372V17.7607C41.5039 17.8463 41.5039 17.9316 41.5042 18.0172C41.5047 18.0891 41.5056 18.1611 41.5075 18.2332C41.5118 18.3896 41.5211 18.5478 41.5491 18.7027C41.5755 18.8582 41.6251 19.0089 41.6961 19.1497C41.7676 19.2903 41.8608 19.4187 41.9724 19.5302C42.0839 19.6418 42.2123 19.7351 42.3529 19.8065C42.4959 19.8794 42.6424 19.9258 42.7999 19.954C42.9546 19.9817 43.1129 19.991 43.2698 19.9952C43.3418 19.9969 43.4137 19.9978 43.4857 19.9983C43.571 19.9989 43.6566 19.9989 43.7421 19.9989H64.2583C64.3436 19.9989 64.4292 19.9989 64.5145 19.9983C64.5864 19.998 64.6583 19.9969 64.7306 19.9952C64.8872 19.991 65.0454 19.9817 65.2006 19.954C65.356 19.9274 65.5066 19.8777 65.6473 19.8065C65.9301 19.6624 66.16 19.4325 66.3041 19.1497C66.377 19.0067 66.4232 18.8602 66.4512 18.7027C66.4792 18.5478 66.4883 18.3896 66.4925 18.2332C66.4945 18.1611 66.4956 18.0891 66.4959 18.0172C66.4965 17.9316 66.4965 17.8463 66.4965 17.7607V6.23735C66.4965 6.15173 66.4965 6.06627 66.4959 5.98081C66.4956 5.90888 66.4945 5.83695 66.4925 5.76504C66.4883 5.60831 66.4792 5.45022 66.4512 5.29515C66.4249 5.13963 66.3753 4.98896 66.3041 4.84821C66.1601 4.56532 65.9302 4.33537 65.6473 4.19139C65.5065 4.12048 65.356 4.07091 65.2006 4.04432C65.0454 4.01639 64.8872 4.00718 64.7306 4.00295C64.6586 4.00112 64.5866 4.00001 64.5145 3.99963C64.4292 3.99902 64.3436 3.99902 64.2583 3.99902Z" fill="black"/>
<path d="M64.2579 4.53259L64.5104 4.53305C64.5786 4.5335 64.647 4.53425 64.7157 4.53607C64.8355 4.53939 64.9753 4.54588 65.1058 4.56928C65.219 4.58967 65.3141 4.62062 65.4053 4.66713C65.5878 4.75992 65.7361 4.90835 65.8287 5.09097C65.8749 5.18156 65.9057 5.27608 65.9261 5.39039C65.9494 5.51933 65.9559 5.65961 65.959 5.77995C65.961 5.84789 65.9619 5.91584 65.962 5.9853C65.9628 6.0694 65.9628 6.15335 65.9628 6.23761V17.7611C65.9628 17.8454 65.9628 17.9293 65.9622 18.0151C65.9619 18.083 65.961 18.151 65.9592 18.2189C65.9559 18.3391 65.9494 18.4794 65.9258 18.6098C65.9087 18.7136 65.8758 18.8142 65.8284 18.9081C65.7356 19.0907 65.5871 19.2392 65.4044 19.3319C65.3138 19.3781 65.219 19.409 65.1068 19.4293C64.9738 19.453 64.8279 19.4595 64.7182 19.4625C64.6492 19.464 64.5805 19.4651 64.5099 19.4654C64.4261 19.466 64.3419 19.466 64.2579 19.466H43.7384C43.6554 19.466 43.5723 19.466 43.4878 19.4654C43.4198 19.4651 43.3519 19.4642 43.2839 19.4627C43.1716 19.4596 43.0257 19.453 42.8938 19.4294C42.7894 19.412 42.6883 19.379 42.5939 19.3313C42.5033 19.2853 42.4206 19.2251 42.349 19.1531C42.2771 19.0814 42.217 18.9986 42.1711 18.9081C42.1236 18.8136 42.0908 18.7126 42.0736 18.6083C42.05 18.478 42.0434 18.3384 42.0403 18.2191C42.0386 18.1509 42.0376 18.0827 42.0373 18.0145L42.0369 17.8141V6.18476L42.0372 5.98469C42.0375 5.91639 42.0385 5.84808 42.0402 5.7798C42.0435 5.66021 42.05 5.52054 42.0737 5.38918C42.0909 5.28512 42.1238 5.18427 42.1712 5.09006C42.2172 4.99977 42.2769 4.91732 42.3494 4.845C42.4213 4.77305 42.504 4.71292 42.5946 4.66683C42.6888 4.6195 42.7896 4.58662 42.8936 4.56928C43.0242 4.54588 43.1642 4.53939 43.2841 4.53607C43.3523 4.53425 43.4207 4.5335 43.4885 4.53305L43.7417 4.53259H64.2579Z" fill="white"/>
<path d="M48.073 9.40013C48.285 9.13513 48.4287 8.77924 48.3908 8.41565C48.0807 8.43105 47.7023 8.62025 47.4831 8.88554C47.2863 9.11263 47.1122 9.48332 47.1575 9.83166C47.5057 9.86186 47.8536 9.65772 48.073 9.40013Z" fill="black"/>
<path d="M48.3872 9.899C47.8813 9.8688 47.4516 10.1859 47.2102 10.1859C46.9686 10.1859 46.5988 9.9141 46.1988 9.9215C45.6783 9.92905 45.1955 10.2235 44.9312 10.6916C44.3879 11.6277 44.7878 13.0169 45.3163 13.7794C45.5728 14.1569 45.882 14.5721 46.2894 14.5571C46.6744 14.542 46.8253 14.308 47.2931 14.308C47.7607 14.308 47.8966 14.5571 48.3041 14.5496C48.7266 14.542 48.9908 14.1721 49.2474 13.7946C49.5418 13.3643 49.6621 12.9491 49.6697 12.9264C49.6621 12.9189 48.8549 12.6092 48.8474 11.6806C48.8398 10.903 49.4812 10.533 49.5114 10.5102C49.1492 9.9745 48.5833 9.9141 48.387 9.899" fill="black"/>
<path d="M53.4282 8.84741C54.5271 8.84741 55.2925 9.60495 55.2925 10.7078C55.2925 11.8146 54.5114 12.576 53.4007 12.576H52.184V14.5112H51.3049V8.84741H53.4282ZM52.184 11.8381H53.1926C53.9582 11.8381 54.3936 11.4261 54.3936 10.7117C54.3936 9.99753 53.958 9.58924 53.1966 9.58924H52.184V11.8381Z" fill="black"/>
<path d="M55.5103 13.3373C55.5103 12.6111 56.0636 12.1951 57.0841 12.1323L58.1791 12.0656V11.7515C58.1791 11.2925 57.8769 11.0413 57.3392 11.0413C56.8956 11.0413 56.5737 11.2688 56.5073 11.6181H55.7142C55.738 10.8842 56.4286 10.3505 57.3628 10.3505C58.3675 10.3505 59.023 10.8764 59.023 11.6928V14.5108H58.2106V13.8318H58.191C57.9594 14.2752 57.449 14.5538 56.8956 14.5538C56.0793 14.5538 55.5103 14.0673 55.5103 13.3373ZM58.1791 12.9723V12.6543L57.2018 12.7171C56.6522 12.7525 56.3659 12.9565 56.3659 13.3136C56.3659 13.659 56.6641 13.8828 57.1312 13.8828C57.7276 13.8828 58.1791 13.502 58.1791 12.9723Z" fill="black"/>
<path d="M59.7701 16.0256V15.3467C59.8251 15.3544 59.9584 15.3623 60.0291 15.3623C60.4176 15.3623 60.6374 15.1977 60.7709 14.7735L60.8494 14.5224L59.3618 10.4014H60.2802L61.3164 13.7453H61.3361L62.3722 10.4014H63.2671L61.7246 14.7303C61.3712 15.7234 60.967 16.0493 60.1115 16.0493C60.0448 16.0493 59.8288 16.0414 59.7701 16.0256Z" fill="black"/>
</g>
<g opacity="0.8" clip-path="url(#clip2_47_3447)">
<path opacity="0.07" d="M100.666 4.00012H79.3328C78.1994 4.00012 77.3328 4.86679 77.3328 6.00012V18.0001C77.3328 19.1335 78.2661 20.0001 79.3328 20.0001H100.666C101.799 20.0001 102.666 19.1335 102.666 18.0001V6.00012C102.666 4.86679 101.733 4.00012 100.666 4.00012Z" fill="black"/>
<path d="M100.666 4.66589C101.4 4.66589 102 5.26589 102 5.99923V17.9992C102 18.7326 101.4 19.3326 100.666 19.3326H79.333C78.5996 19.3326 77.9996 18.7326 77.9996 17.9992V5.99923C77.9996 5.26589 78.5996 4.66589 79.333 4.66589H100.666Z" fill="white"/>
<path d="M89.3949 11.9835V14.1169H88.7162V8.85021H90.5102C90.7251 8.84657 90.9387 8.88545 91.1386 8.96463C91.3384 9.0438 91.5207 9.1617 91.6749 9.31154C91.8209 9.44781 91.9386 9.61151 92.0213 9.7933C92.1041 9.97509 92.1501 10.1714 92.1569 10.371C92.1638 10.5706 92.1312 10.7696 92.061 10.9566C91.9909 11.1436 91.8846 11.315 91.7482 11.4609L91.6749 11.5382C91.3615 11.8362 90.9429 11.9982 90.5102 11.9875L89.3949 11.9835ZM89.3949 9.49554V11.3542H90.5269C90.7782 11.3622 91.0209 11.2642 91.1969 11.0849C91.3227 10.9537 91.4073 10.7883 91.4399 10.6094C91.4726 10.4305 91.4519 10.246 91.3805 10.0788C91.3091 9.91152 91.1902 9.76896 91.0384 9.66882C90.8866 9.56868 90.7087 9.51538 90.5269 9.51554L89.3949 9.49554ZM93.7175 10.3942C94.1509 10.3742 94.5749 10.5195 94.9029 10.8029C95.1995 11.0895 95.3575 11.4895 95.3362 11.9022V14.1249H94.6902V13.6142H94.6575C94.5417 13.8057 94.3778 13.9637 94.1822 14.0726C93.9866 14.1814 93.766 14.2374 93.5422 14.2349C93.1768 14.2467 92.8205 14.1198 92.5449 13.8795C92.4143 13.773 92.3096 13.6382 92.2388 13.4853C92.168 13.3324 92.1329 13.1654 92.1362 12.9969C92.1285 12.8266 92.1616 12.657 92.2326 12.502C92.3037 12.3471 92.4108 12.2114 92.5449 12.1062C92.8738 11.8696 93.2719 11.7489 93.6769 11.7629C94.0215 11.7495 94.3635 11.8249 94.6702 11.9835V11.8449C94.6724 11.7302 94.6486 11.6166 94.6004 11.5125C94.5523 11.4084 94.481 11.3167 94.3922 11.2442C94.2137 11.082 93.98 10.9942 93.7389 10.9989C93.5637 10.9972 93.3911 11.0403 93.2372 11.1239C93.0834 11.2075 92.9534 11.329 92.8595 11.4769L92.2629 11.1009C92.4249 10.8687 92.6436 10.6819 92.8982 10.5582C93.1529 10.4345 93.4349 10.3781 93.7175 10.3942ZM92.8595 13.0129C92.8579 13.0992 92.8776 13.1846 92.9167 13.2616C92.9559 13.3386 93.0134 13.4047 93.0842 13.4542C93.2329 13.5715 93.4175 13.6335 93.6075 13.6295C93.8935 13.6289 94.1675 13.5162 94.3715 13.3149C94.5749 13.1242 94.6902 12.8582 94.6902 12.5795C94.4335 12.3971 94.1217 12.309 93.8075 12.3302C93.5636 12.3206 93.323 12.3893 93.1209 12.5262C93.0408 12.5798 92.9751 12.6521 92.9296 12.737C92.884 12.8218 92.8599 12.9166 92.8595 13.0129ZM99.0502 10.5129L96.7902 15.7062H96.0915L96.9455 13.8875L95.4629 10.5129H96.1982L97.2729 13.1029L98.3189 10.5129H99.0502Z" fill="#5F6368"/>
<path d="M86.657 11.5223C86.657 11.3169 86.641 11.1116 86.6083 10.9089H83.7483V12.0736H85.3823C85.349 12.2587 85.2787 12.4352 85.1756 12.5925C85.0725 12.7497 84.9387 12.8846 84.7823 12.9889V13.7449H85.7583C86.0551 13.4578 86.2883 13.1117 86.4431 12.7288C86.5979 12.346 86.6708 11.935 86.657 11.5223Z" fill="#4285F4"/>
<path d="M83.7522 14.4803C84.4898 14.5005 85.2073 14.239 85.7589 13.7489L84.7816 12.9889C84.5467 13.1395 84.2807 13.2345 84.0036 13.2668C83.7265 13.2991 83.4457 13.2677 83.1826 13.1752C82.9194 13.0826 82.6808 12.9313 82.485 12.7327C82.2891 12.534 82.1411 12.2934 82.0522 12.0289H81.0509V12.8089C81.3015 13.311 81.6869 13.7332 82.1641 14.0285C82.6412 14.3237 83.1912 14.4801 83.7522 14.4803Z" fill="#34A853"/>
<path d="M82.0521 12.0325C81.9253 11.6574 81.9253 11.251 82.0521 10.8758V10.0958H81.0508C80.8373 10.5168 80.7261 10.9822 80.7261 11.4542C80.7261 11.9262 80.8373 12.3915 81.0508 12.8125L82.0521 12.0325Z" fill="#FBBC04"/>
<path d="M83.7522 9.62647C84.1836 9.61859 84.6005 9.78154 84.9122 10.0798L85.7789 9.2178C85.2263 8.69914 84.4933 8.41624 83.7356 8.42913C83.1778 8.43193 82.6317 8.58914 82.1579 8.88332C81.684 9.1775 81.3008 9.59717 81.0509 10.0958L82.0522 10.8765C82.1693 10.5165 82.3963 10.2023 82.7012 9.97811C83.0062 9.75389 83.3738 9.63091 83.7522 9.62647Z" fill="#EA4335"/>
</g>
<g opacity="0.8" clip-path="url(#clip3_47_3447)">
<path opacity="0.07" d="M136.667 4.00012H115.333C114.2 4.00012 113.333 4.86679 113.333 6.00012V18.0001C113.333 19.1335 114.267 20.0001 115.333 20.0001H136.667C137.8 20.0001 138.667 19.1335 138.667 18.0001V6.00012C138.667 4.86679 137.733 4.00012 136.667 4.00012Z" fill="black"/>
<path d="M136.667 4.66589C137.4 4.66589 138 5.26589 138 5.99923V17.9992C138 18.7326 137.4 19.3326 136.667 19.3326H115.333C114.6 19.3326 114 18.7326 114 17.9992V5.99923C114 5.26589 114.6 4.66589 115.333 4.66589H136.667Z" fill="white"/>
<path d="M123.333 16.6661C125.911 16.6661 128 14.5768 128 11.9994C128 9.4221 125.911 7.33276 123.333 7.33276C120.756 7.33276 118.667 9.4221 118.667 11.9994C118.667 14.5768 120.756 16.6661 123.333 16.6661Z" fill="#EB001B"/>
<path d="M128.666 16.6661C131.244 16.6661 133.333 14.5768 133.333 11.9994C133.333 9.4221 131.244 7.33276 128.666 7.33276C126.089 7.33276 124 9.4221 124 11.9994C124 14.5768 126.089 16.6661 128.666 16.6661Z" fill="#F79E1B"/>
<path d="M128 11.9992C128 10.3992 127.2 8.99922 126 8.19922C124.8 9.06589 124 10.4659 124 11.9992C124 13.5326 124.8 14.9992 126 15.7992C127.2 14.9992 128 13.5992 128 11.9992Z" fill="#FF5F00"/>
</g>
<g opacity="0.8" clip-path="url(#clip4_47_3447)">
<path opacity="0.07" d="M172.666 4.00012H151.333C150.2 4.00012 149.333 4.86679 149.333 6.00012V18.0001C149.333 19.1335 150.266 20.0001 151.333 20.0001H172.666C173.8 20.0001 174.666 19.1335 174.666 18.0001V6.00012C174.666 4.86679 173.733 4.00012 172.666 4.00012Z" fill="black"/>
<path d="M172.667 4.66589C173.4 4.66589 174 5.26589 174 5.99923V17.9992C174 18.7326 173.4 19.3326 172.667 19.3326H151.333C150.6 19.3326 150 18.7326 150 17.9992V5.99923C150 5.26589 150.6 4.66589 151.333 4.66589H172.667Z" fill="white"/>
<path d="M165.266 9.53276C165.4 8.8661 165.266 8.39943 164.866 7.99943C164.466 7.53276 163.733 7.33276 162.8 7.33276H160.066C159.866 7.33276 159.733 7.4661 159.666 7.6661L158.666 14.3994C158.666 14.5328 158.733 14.6661 158.866 14.6661H160.666L160.933 12.3994L162.133 10.9328L165.266 9.53276Z" fill="#003087"/>
<path d="M165.266 9.53357L165.133 9.6669C164.8 11.5336 163.666 12.2002 162.066 12.2002H161.333C161.133 12.2002 161 12.3336 160.933 12.5336L160.533 15.1336L160.4 15.8002C160.4 15.9336 160.466 16.0669 160.6 16.0669H162C162.2 16.0669 162.333 15.9336 162.333 15.8002V15.7336L162.6 14.1336V14.0669C162.6 13.9336 162.8 13.8002 162.933 13.8002H163.133C164.533 13.8002 165.6 13.2669 165.866 11.6669C166 11.0002 165.933 10.4669 165.6 10.0669C165.533 9.73357 165.4 9.60024 165.266 9.53357Z" fill="#3086C8"/>
<path d="M164.866 9.39995C164.8 9.33328 164.733 9.33328 164.666 9.33328C164.6 9.33328 164.533 9.33328 164.466 9.26662C164.266 9.19995 164 9.19995 163.733 9.19995H161.733C161.666 9.19995 161.6 9.19995 161.6 9.26662C161.466 9.33328 161.4 9.39995 161.4 9.53328L160.933 12.4666V12.5333C160.933 12.3333 161.133 12.2 161.333 12.2H162.2C163.866 12.2 164.933 11.5333 165.266 9.66662V9.53328C165.2 9.46662 165.066 9.39995 164.933 9.39995H164.866Z" fill="#012169"/>
</g>
<g opacity="0.8" clip-path="url(#clip5_47_3447)">
<path opacity="0.07" d="M208.666 4.00012H187.333C186.2 4.00012 185.333 4.86679 185.333 6.00012V18.0001C185.333 19.1335 186.266 20.0001 187.333 20.0001H208.666C209.8 20.0001 210.666 19.1335 210.666 18.0001V6.00012C210.666 4.86679 209.733 4.00012 208.666 4.00012Z" fill="black"/>
<path d="M209.259 4.00012C210.033 4.00012 210.666 4.65479 210.666 5.45479V18.5455C210.666 19.3455 210.033 20.0001 209.259 20.0001H186.74C185.966 20.0001 185.333 19.3455 185.333 18.5455V5.45479C185.333 4.65479 185.966 4.00012 186.74 4.00012H209.259Z" fill="#5A31F4"/>
<path d="M191.566 11.5773C190.888 11.4287 190.586 11.3707 190.586 11.1073C190.586 10.8593 190.79 10.7353 191.2 10.7353C191.56 10.7353 191.822 10.894 192.016 11.2047C192.023 11.2162 192.034 11.2247 192.047 11.2284C192.06 11.2321 192.074 11.2308 192.086 11.2247L192.85 10.8353C192.856 10.8319 192.862 10.8271 192.866 10.8213C192.871 10.8156 192.874 10.809 192.876 10.8019C192.878 10.7948 192.879 10.7873 192.878 10.78C192.877 10.7727 192.875 10.7657 192.871 10.7593C192.554 10.2053 191.969 9.90199 191.198 9.90199C190.184 9.90199 189.555 10.4053 189.555 11.206C189.555 12.056 190.322 12.2707 191.002 12.4193C191.682 12.5673 191.984 12.626 191.984 12.8893C191.984 13.1533 191.763 13.2773 191.322 13.2773C190.914 13.2773 190.612 13.0893 190.429 12.724C190.423 12.7115 190.411 12.702 190.398 12.6977C190.385 12.6933 190.37 12.6944 190.358 12.7007L189.596 13.0807C189.583 13.0874 189.573 13.0989 189.568 13.1127C189.564 13.1266 189.565 13.1416 189.572 13.1547C189.874 13.768 190.494 14.1127 191.323 14.1127C192.378 14.1127 193.016 13.618 193.016 12.7927C193.016 11.9673 192.246 11.7273 191.567 11.5793L191.566 11.5773ZM195.66 9.90199C195.226 9.90199 194.844 10.0567 194.569 10.3327C194.565 10.3366 194.56 10.3394 194.555 10.3405C194.55 10.3416 194.544 10.341 194.539 10.3388C194.534 10.3366 194.53 10.3329 194.527 10.3283C194.524 10.3236 194.523 10.3181 194.523 10.3127V8.55266C194.523 8.5456 194.522 8.53859 194.519 8.53204C194.516 8.52549 194.513 8.51954 194.508 8.51451C194.503 8.50949 194.497 8.5055 194.49 8.50278C194.484 8.50006 194.477 8.49866 194.47 8.49866H193.513C193.506 8.49866 193.499 8.50008 193.492 8.50284C193.486 8.5056 193.48 8.50965 193.475 8.51475C193.47 8.51984 193.466 8.52588 193.463 8.5325C193.461 8.53913 193.459 8.54621 193.46 8.55332V14.016C193.459 14.0231 193.461 14.0302 193.463 14.0368C193.466 14.0434 193.47 14.0495 193.475 14.0546C193.48 14.0597 193.486 14.0637 193.492 14.0665C193.499 14.0692 193.506 14.0707 193.513 14.0707H194.468C194.475 14.0708 194.483 14.0694 194.489 14.0667C194.496 14.0639 194.502 14.0599 194.507 14.0548C194.512 14.0497 194.516 14.0436 194.519 14.037C194.521 14.0303 194.522 14.0232 194.522 14.016V11.62C194.522 11.1567 194.874 10.802 195.348 10.802C195.822 10.802 196.166 11.1493 196.166 11.62V14.016C196.165 14.0232 196.167 14.0303 196.169 14.037C196.172 14.0436 196.176 14.0497 196.181 14.0548C196.186 14.0599 196.192 14.0639 196.199 14.0667C196.205 14.0694 196.212 14.0708 196.22 14.0707H197.175C197.182 14.0708 197.189 14.0694 197.196 14.0667C197.202 14.0639 197.209 14.0599 197.214 14.0548C197.219 14.0497 197.223 14.0436 197.225 14.037C197.228 14.0303 197.229 14.0232 197.229 14.016V11.62C197.229 10.6133 196.576 9.90199 195.66 9.90199ZM199.168 9.74532C198.65 9.74532 198.164 9.90532 197.815 10.1373C197.803 10.1449 197.795 10.1566 197.792 10.1701C197.788 10.1836 197.79 10.1979 197.797 10.21L198.218 10.9353C198.222 10.9415 198.226 10.9469 198.232 10.9513C198.238 10.9556 198.244 10.9588 198.251 10.9607C198.258 10.9625 198.265 10.963 198.272 10.9621C198.279 10.9612 198.285 10.9589 198.292 10.9553C198.556 10.7939 198.86 10.7094 199.17 10.7113C200.004 10.7113 200.617 11.3053 200.617 12.09C200.617 12.7587 200.126 13.2533 199.504 13.2533C198.998 13.2533 198.646 12.956 198.646 12.5353C198.646 12.2947 198.747 12.0973 199.011 11.958C199.017 11.9547 199.023 11.95 199.028 11.9443C199.033 11.9386 199.036 11.9321 199.038 11.925C199.04 11.9179 199.041 11.9105 199.04 11.9032C199.039 11.8959 199.036 11.8889 199.032 11.8827L198.635 11.204C198.629 11.1929 198.619 11.1845 198.607 11.1803C198.595 11.176 198.581 11.1761 198.57 11.1807C198.037 11.38 197.664 11.8593 197.664 12.5033C197.664 13.4767 198.432 14.2033 199.504 14.2033C200.755 14.2033 201.655 13.328 201.655 12.0733C201.655 10.728 200.608 9.74532 199.168 9.74532ZM204.45 9.89399C203.967 9.89399 203.534 10.074 203.22 10.3913C203.202 10.4093 203.174 10.396 203.174 10.372V9.99066C203.174 9.98354 203.173 9.97646 203.17 9.96984C203.167 9.96321 203.163 9.95717 203.158 9.95208C203.153 9.94699 203.148 9.94294 203.141 9.94017C203.134 9.93741 203.127 9.93599 203.12 9.93599H202.189C202.182 9.93599 202.175 9.93741 202.168 9.94017C202.162 9.94294 202.156 9.94699 202.151 9.95208C202.146 9.95717 202.142 9.96321 202.139 9.96984C202.137 9.97646 202.135 9.98354 202.136 9.99066V15.4453C202.136 15.4524 202.137 15.4594 202.139 15.4659C202.142 15.4725 202.146 15.4784 202.151 15.4835C202.156 15.4885 202.162 15.4925 202.168 15.4952C202.175 15.4979 202.182 15.4993 202.189 15.4993H203.144C203.151 15.4994 203.158 15.4981 203.165 15.4954C203.172 15.4927 203.178 15.4887 203.183 15.4837C203.188 15.4787 203.192 15.4727 203.194 15.4661C203.197 15.4595 203.198 15.4524 203.198 15.4453V13.6567C203.198 13.6327 203.227 13.6207 203.244 13.6367C203.571 13.9418 204.003 14.109 204.45 14.1033C205.571 14.1033 206.445 13.188 206.445 11.9987C206.445 10.8093 205.57 9.89399 204.45 9.89399ZM204.269 13.18C203.632 13.18 203.148 12.668 203.148 11.9913C203.148 11.3147 203.63 10.8027 204.269 10.8027C204.908 10.8027 205.389 11.306 205.389 11.9913C205.389 12.676 204.914 13.18 204.269 13.18Z" fill="white"/>
</g>
<g opacity="0.8" clip-path="url(#clip6_47_3447)">
<path d="M233.133 4.00012V20.0001H228.333C227.466 20.0001 226.933 19.3335 227.133 18.4668L230.066 5.53346C230.266 4.66679 231.333 4.00012 232.2 4.00012H233.133ZM241.533 4.00012C240.666 4.00012 239.6 4.66679 239.4 5.53346L236.4 18.4668C236.2 19.3335 236.733 20.0001 237.6 20.0001H234.333V4.00012H241.533Z" fill="#005B9A"/>
<path d="M232.199 3.99902C231.333 3.99902 230.266 4.73236 230.066 5.53236L227.133 18.4657C226.933 19.3324 227.466 19.999 228.333 19.999H222.399C221.866 19.999 221.399 19.599 221.399 19.0657V5.06569C221.399 4.53236 221.866 3.99902 222.399 3.99902H232.199Z" fill="#E9292D"/>
<path d="M241.533 3.99902C240.666 3.99902 239.6 4.73236 239.4 5.53236L236.466 18.4657C236.266 19.3324 236.8 19.999 237.666 19.999H228H228.333C227.466 19.999 226.933 19.3324 227.133 18.4657L230.066 5.53236C230.266 4.66569 231.333 3.99902 232.2 3.99902H241.533Z" fill="#0E73B9"/>
<path d="M246.666 5.06569V19.0657C246.666 19.599 246.266 19.999 245.666 19.999H237.599C236.733 19.999 236.199 19.2657 236.399 18.4657L239.399 5.53236C239.599 4.66569 240.666 3.99902 241.533 3.99902H245.666C246.266 3.99902 246.666 4.46569 246.666 5.06569Z" fill="#059DA4"/>
<path d="M231.252 13.0956H231.345C231.438 13.0956 231.532 13.0489 231.532 13.0022L231.812 12.5822H232.605L232.465 12.8156H233.398L233.258 13.2356H232.138C231.998 13.4222 231.858 13.5156 231.672 13.5156H231.112L231.252 13.0956ZM231.112 13.7022H233.118L232.978 14.1689H232.185L232.045 14.6356H232.838L232.698 15.1022H231.905L231.718 15.8022C231.672 15.8956 231.718 15.9889 231.905 15.9422H232.558L232.418 16.4089H231.158C230.925 16.4089 230.832 16.2689 230.925 15.9889L231.158 15.1022H230.645L230.785 14.6356H231.298L231.438 14.1689H230.972L231.112 13.7022ZM234.332 12.5356V12.8156C234.332 12.8156 234.705 12.5356 235.078 12.5356H236.385L235.872 14.3089C235.825 14.4956 235.638 14.6356 235.358 14.6356H233.865L233.538 15.8956C233.538 15.9422 233.538 15.9889 233.632 15.9889H233.912L233.818 16.3622H233.072C232.792 16.3622 232.698 16.2689 232.745 16.1289L233.725 12.5356H234.332ZM235.452 13.0489H234.285L234.145 13.5156C234.145 13.5156 234.332 13.3756 234.658 13.3756H235.358L235.452 13.0489ZM235.032 14.1689C235.125 14.1689 235.172 14.1689 235.172 14.0756L235.265 13.8422H234.098L234.005 14.2156L235.032 14.1689ZM234.238 14.7289H234.892V15.0089H235.078C235.172 15.0089 235.218 14.9622 235.218 14.9156L235.265 14.7289H235.825L235.732 15.0556C235.685 15.2889 235.498 15.3822 235.218 15.4289H234.845V15.9422C234.845 16.0356 234.892 16.0822 235.078 16.0822H235.405L235.312 16.4556H234.518C234.285 16.4556 234.192 16.3622 234.192 16.1289L234.238 14.7289ZM237.038 13.0956L237.178 12.5356H237.972L237.925 12.7222C237.925 12.7222 238.298 12.5356 238.625 12.5356H239.605L239.465 13.0956H239.325L238.578 15.6622H238.718L238.578 16.1756H238.438L238.392 16.4089H237.598L237.645 16.1756H236.198L236.338 15.6622H236.478L237.225 13.0956H237.038ZM237.878 13.0956L237.692 13.7956C237.692 13.7956 238.018 13.6556 238.298 13.6089C238.345 13.3756 238.438 13.0956 238.438 13.0956H237.878ZM237.552 14.1222L237.365 14.8689C237.365 14.8689 237.738 14.6822 238.018 14.6822C238.112 14.4022 238.158 14.1689 238.158 14.1689L237.552 14.1222ZM237.692 15.6622L237.832 15.1489H237.272L237.132 15.6622H237.692ZM239.605 12.5356H240.352L240.398 12.8156C240.398 12.8622 240.445 12.9089 240.538 12.9089H240.678L240.538 13.3756H240.025C239.838 13.3756 239.698 13.3289 239.698 13.1422L239.605 12.5356ZM239.372 13.5156H241.752L241.612 14.0289H240.818L240.678 14.4956H241.425L241.285 15.0089H240.445L240.258 15.2889H240.678L240.772 15.8489C240.772 15.8956 240.818 15.9422 240.912 15.9422H241.052L240.912 16.4089H240.445C240.212 16.4089 240.072 16.3622 240.072 16.1756L239.978 15.6622L239.605 16.2222C239.512 16.3622 239.372 16.4556 239.185 16.4556H238.485L238.625 15.9889H238.858C238.952 15.9889 238.998 15.9422 239.092 15.8489L239.652 15.0089H238.952L239.092 14.4956H239.885L240.025 14.0289H239.232L239.372 13.5156ZM226.212 10.1556C226.118 10.6222 225.932 10.9489 225.605 11.1822C225.278 11.4156 224.858 11.5556 224.345 11.5556C223.878 11.5556 223.505 11.4156 223.318 11.1822C223.178 10.9956 223.085 10.8089 223.085 10.5289C223.085 10.4356 223.085 10.2956 223.132 10.1556L223.692 7.54224H224.485L223.972 10.1556V10.3422C223.972 10.4822 224.018 10.5756 224.065 10.6689C224.158 10.8089 224.298 10.8556 224.532 10.8556C224.765 10.8556 224.998 10.8089 225.138 10.6689C225.278 10.5289 225.418 10.3889 225.465 10.1556L225.978 7.54224H226.772L226.212 10.1556ZM226.958 9.1289H227.518L227.472 9.45557L227.565 9.36223C227.752 9.17557 227.985 9.08224 228.265 9.08224C228.498 9.08224 228.685 9.17557 228.778 9.31557C228.872 9.45557 228.918 9.64224 228.872 9.92224L228.545 11.5089H227.938L228.218 10.0622C228.265 9.87557 228.265 9.73557 228.218 9.6889C228.172 9.59557 228.078 9.59557 227.985 9.59557C227.845 9.59557 227.705 9.64224 227.612 9.73557C227.518 9.8289 227.425 9.9689 227.425 10.1556L227.145 11.5089H226.538L226.958 9.1289ZM233.492 9.1289H234.052L234.005 9.45557L234.098 9.36223C234.285 9.17557 234.518 9.08224 234.798 9.08224C235.032 9.08224 235.218 9.17557 235.312 9.31557C235.405 9.45557 235.452 9.64224 235.405 9.92224L235.078 11.5089H234.472L234.752 10.0156C234.798 9.87557 234.752 9.73557 234.705 9.6889C234.658 9.59557 234.565 9.59557 234.472 9.59557C234.332 9.59557 234.192 9.64224 234.098 9.73557C234.005 9.8289 233.912 9.9689 233.912 10.1556L233.632 11.5089H233.025L233.492 9.1289ZM229.618 9.1289H230.272L229.758 11.4622H229.105L229.618 9.1289ZM229.852 8.24224H230.505L230.365 8.80224H229.712L229.852 8.24224ZM230.785 11.2756C230.645 11.1356 230.552 10.9022 230.552 10.6222V10.4822C230.552 10.4356 230.552 10.3422 230.598 10.2956C230.692 9.92224 230.832 9.59557 231.065 9.4089C231.298 9.17557 231.625 9.08224 231.952 9.08224C232.232 9.08224 232.465 9.17557 232.652 9.31557C232.792 9.45557 232.885 9.6889 232.885 9.9689V10.1089C232.885 10.1556 232.885 10.2489 232.838 10.2956C232.745 10.6689 232.605 10.9489 232.372 11.1822C232.138 11.4156 231.812 11.5089 231.485 11.5089C231.252 11.5089 231.018 11.4156 230.785 11.2756ZM232.045 10.8089C232.138 10.6689 232.232 10.4822 232.278 10.2489V10.0156C232.278 9.87557 232.232 9.78224 232.185 9.6889C232.144 9.64328 232.093 9.60713 232.037 9.58296C231.981 9.55879 231.92 9.54717 231.858 9.5489C231.672 9.5489 231.532 9.59557 231.438 9.73557C231.345 9.87557 231.252 10.0622 231.205 10.2956V10.4822C231.205 10.6222 231.252 10.7156 231.298 10.8089C231.392 10.9022 231.485 10.9489 231.625 10.9489C231.812 10.9956 231.905 10.9489 232.045 10.8089ZM236.385 7.68224H238.065C238.392 7.68224 238.625 7.77557 238.812 7.91557C238.998 8.05557 239.045 8.2889 239.045 8.52224V8.7089C239.045 8.75557 239.045 8.8489 238.998 8.89557C238.952 9.22224 238.765 9.5489 238.532 9.73557C238.252 9.9689 237.972 10.0622 237.598 10.0622H236.665L236.385 11.4156H235.592L236.385 7.68224ZM236.758 9.4089H237.505C237.692 9.4089 237.832 9.36224 237.972 9.2689C238.065 9.17557 238.158 9.03557 238.205 8.8489V8.66224C238.205 8.52224 238.158 8.4289 238.065 8.38224C237.972 8.33557 237.832 8.2889 237.598 8.2889H236.992L236.758 9.4089ZM242.545 11.8822C242.312 12.3956 242.078 12.7222 241.938 12.8622C241.798 13.0022 241.518 13.3289 240.865 13.3289L240.912 12.9089C241.472 12.7222 241.752 11.9756 241.938 11.6022L241.752 9.08224H242.545L242.592 10.6689L243.198 9.1289H243.898L242.545 11.8822ZM240.585 9.31557L240.305 9.50224C240.025 9.2689 239.745 9.1289 239.278 9.36223C238.625 9.6889 238.018 12.1156 239.885 11.3222L239.978 11.4622H240.725L241.192 9.2689L240.585 9.31557ZM240.212 10.5289C240.072 10.9022 239.838 11.0889 239.605 11.0422C239.418 10.9489 239.372 10.6222 239.465 10.2489C239.605 9.87557 239.838 9.6889 240.072 9.73557C240.258 9.8289 240.305 10.1556 240.212 10.5289Z" fill="white"/>
</g>
<defs>
<clipPath id="clip0_47_3447">
<rect width="25.3333" height="16" fill="white" transform="translate(5.33337 3.99988)"/>
</clipPath>
<clipPath id="clip1_47_3447">
<rect width="25.3333" height="16" fill="white" transform="translate(41.3334 3.99988)"/>
</clipPath>
<clipPath id="clip2_47_3447">
<rect width="25.3333" height="16" fill="white" transform="translate(77.333 3.99988)"/>
</clipPath>
<clipPath id="clip3_47_3447">
<rect width="25.3333" height="16" fill="white" transform="translate(113.334 3.99988)"/>
</clipPath>
<clipPath id="clip4_47_3447">
<rect width="25.3333" height="16" fill="white" transform="translate(149.333 3.99988)"/>
</clipPath>
<clipPath id="clip5_47_3447">
<rect width="25.3333" height="16" fill="white" transform="translate(185.333 3.99988)"/>
</clipPath>
<clipPath id="clip6_47_3447">
<rect width="25.3333" height="16" fill="white" transform="translate(221.333 3.99988)"/>
</clipPath>
</defs>
</svg>
