<svg width="190" height="50" viewBox="0 0 190 50" fill="none" xmlns="http://www.w3.org/2000/svg">
<rect x="1.48047" y="0.5" width="187.98" height="49" rx="5.5" fill="black"/>
<rect x="1.48047" y="0.5" width="187.98" height="49" rx="5.5" stroke="#757575"/>
<g clip-path="url(#clip0_88_5463)">
<path fill-rule="evenodd" clip-rule="evenodd" d="M94.095 17.72V23.4842H97.6498C98.4969 23.4842 99.1971 23.199 99.7505 22.6301C100.319 22.0626 100.605 21.3849 100.605 20.6014C100.605 19.8334 100.319 19.1642 99.7505 18.5939C99.1971 18.0108 98.4969 17.7186 97.6498 17.7186L94.095 17.72ZM94.095 25.5129V32.199H91.9717V15.6913H97.6046C99.0347 15.6913 100.249 16.167 101.25 17.12C102.266 18.0729 102.775 19.2334 102.775 20.6014C102.775 22.0005 102.266 23.1694 101.25 24.1054C100.266 25.0442 99.0489 25.5115 97.6032 25.5115L94.095 25.5129ZM104.92 28.7416C104.92 29.295 105.155 29.7553 105.625 30.1252C106.094 30.4922 106.644 30.6772 107.274 30.6772C108.167 30.6772 108.962 30.3468 109.663 29.6875C110.364 29.0254 110.713 28.2489 110.713 27.3581C110.051 26.8358 109.127 26.5746 107.943 26.5746C107.082 26.5746 106.362 26.7835 105.786 27.1986C105.208 27.6136 104.92 28.1261 104.92 28.7416ZM107.668 20.5322C109.238 20.5322 110.476 20.9515 111.385 21.7887C112.291 22.6273 112.746 23.7765 112.746 25.2362V32.199H110.714V30.632H110.623C109.744 31.9223 108.575 32.5689 107.113 32.5689C105.868 32.5689 104.824 32.1991 103.986 31.4621C103.147 30.7238 102.728 29.8019 102.728 28.6951C102.728 27.5261 103.17 26.5972 104.055 25.9054C104.94 25.2136 106.12 24.8678 107.599 24.8678C108.858 24.8678 109.898 25.0979 110.713 25.5595V25.0739C110.713 24.3369 110.421 23.7101 109.836 23.1962C109.273 22.6895 108.54 22.4137 107.782 22.424C106.596 22.424 105.659 22.9223 104.966 23.9233L103.096 22.7459C104.127 21.2706 105.652 20.5322 107.668 20.5322ZM124.401 20.9021L117.314 37.1798H115.122L117.753 31.4847L113.092 20.9021H115.4L118.77 29.0183H118.815L122.093 20.9007L124.401 20.9021Z" fill="white"/>
<path fill-rule="evenodd" clip-rule="evenodd" d="M85.5145 24.0715C85.5145 23.4037 85.4581 22.7586 85.3508 22.143H76.3945V25.7967H81.5249C81.4197 26.3805 81.1974 26.9369 80.8713 27.4323C80.5452 27.9278 80.1221 28.3521 79.6275 28.6795V31.0513H82.6896C84.4825 29.3995 85.5145 26.9572 85.5145 24.0715Z" fill="#4285F4"/>
<path fill-rule="evenodd" clip-rule="evenodd" d="M76.3949 33.3412C78.9586 33.3412 81.1158 32.5012 82.6899 31.0527L79.6278 28.6795C78.7765 29.2527 77.6796 29.5873 76.3949 29.5873C73.9186 29.5873 71.8151 27.9186 71.064 25.6711H67.9102V28.1148C68.7013 29.6866 69.9136 31.0078 71.4118 31.9309C72.91 32.8539 74.6351 33.3427 76.3949 33.3426" fill="#34A853"/>
<path fill-rule="evenodd" clip-rule="evenodd" d="M71.0636 25.671C70.6674 24.4931 70.6674 23.2179 71.0636 22.04V19.5962H67.9097C67.243 20.9165 66.8962 22.3751 66.8975 23.8541C66.8975 25.3859 67.2645 26.8329 67.9097 28.1134L71.0636 25.6696V25.671Z" fill="#FABB05"/>
<path fill-rule="evenodd" clip-rule="evenodd" d="M76.3944 18.1238C77.7949 18.1238 79.0485 18.6038 80.0368 19.5468V19.5482L82.7474 16.8405C81.1041 15.3101 78.9582 14.3699 76.3958 14.3699C74.6363 14.3696 72.9112 14.8582 71.4131 15.781C69.9149 16.7038 68.7025 18.0247 67.9111 19.5962L71.065 22.04C71.8161 19.7925 73.9182 18.1238 76.3944 18.1238Z" fill="#E94235"/>
</g>
<defs>
<clipPath id="clip0_88_5463">
<rect width="57.8824" height="24" fill="white" transform="translate(66.5293 14)"/>
</clipPath>
</defs>
</svg>
