<svg width="85" height="23" viewBox="0 0 85 23" fill="none" xmlns="http://www.w3.org/2000/svg">
<g clip-path="url(#clip0_88_5637)">
<mask id="mask0_88_5637" style="mask-type:luminance" maskUnits="userSpaceOnUse" x="0" y="0" width="85" height="23">
<path d="M0.0234375 0.720093H84.7415V22.3901H0.0234375V0.720093Z" fill="white"/>
</mask>
<g mask="url(#mask0_88_5637)">
<path fill-rule="evenodd" clip-rule="evenodd" d="M27.0126 5.56635H31.7007C33.2698 5.56635 34.4513 5.99975 35.1179 6.82018C35.7247 7.56693 35.9254 8.63309 35.7156 9.9905C35.2501 13.0923 33.4678 14.6578 30.38 14.6578H28.8955C28.5756 14.6578 28.3017 14.9018 28.2527 15.2342L27.7413 18.6308C27.691 18.9632 27.4183 19.2072 27.0976 19.2072H24.8593C24.6188 19.2072 24.435 18.9836 24.4727 18.7348L26.369 6.14234C26.4188 5.81036 26.6919 5.56592 27.0126 5.56592V5.56635ZM29.4546 11.9278C30.6973 11.9278 31.9829 11.9278 32.239 10.1656C32.3331 9.5467 32.2577 9.09856 32.0115 8.79692C31.5989 8.29157 30.8005 8.29157 29.9535 8.29157H29.6293C29.4377 8.29157 29.273 8.43806 29.2435 8.63699L28.7473 11.9278H29.4546ZM43.469 10.1093H45.7138C45.9539 10.1093 46.1368 10.3338 46.0982 10.5817L44.885 18.6303C44.8343 18.9627 44.563 19.2067 44.2414 19.2067H42.2194C41.9801 19.2067 41.7963 18.9831 41.8336 18.733L41.9342 18.0799C41.9342 18.0799 40.8254 19.4261 38.8264 19.4261C37.6622 19.4261 36.6831 19.0741 35.9991 18.2299C35.2532 17.3111 34.948 15.9944 35.1626 14.617C35.5752 11.8563 37.6939 9.88778 40.1749 9.88778C41.2567 9.88778 42.3403 10.1348 42.8266 10.8738L42.9835 11.1121L43.0832 10.4547C43.095 10.3602 43.1406 10.2733 43.2115 10.2098C43.2824 10.1463 43.3738 10.1106 43.469 10.1093ZM40.0518 16.931C41.3503 16.931 42.368 16.0295 42.5848 14.686C42.6827 14.0354 42.5471 13.4451 42.2051 13.0221C41.8635 12.6035 41.3451 12.3816 40.708 12.3816C39.4293 12.3816 38.3943 13.3134 38.1923 14.6452C38.0865 15.2983 38.2127 15.8847 38.5443 16.2973C38.8789 16.7125 39.3999 16.931 40.0518 16.931Z" fill="#253B80"/>
<path d="M57.6705 10.1089H55.4149C55.1994 10.1089 54.9975 10.2211 54.8752 10.4079L51.7636 15.2096L50.4451 10.5956C50.3618 10.307 50.1074 10.1089 49.8196 10.1089H47.603C47.3334 10.1089 47.1462 10.3845 47.232 10.6506L49.7169 18.2893L47.3806 21.7435C47.1969 22.0161 47.3819 22.3901 47.6997 22.3901H49.9527C50.1664 22.3901 50.3666 22.2809 50.488 22.0972L57.9916 10.7516C58.1711 10.4803 57.9869 10.1089 57.6705 10.1089Z" fill="#253B80"/>
<path fill-rule="evenodd" clip-rule="evenodd" d="M60.4512 5.56635H65.1402C66.7092 5.56635 67.8903 5.99975 68.5557 6.82018C69.1625 7.56693 69.3649 8.63309 69.1542 9.9905C68.6883 13.0923 66.9064 14.6578 63.8177 14.6578H62.3341C62.0142 14.6578 61.7407 14.9018 61.6913 15.2342L61.153 18.8041C61.1183 19.0369 60.9271 19.2072 60.7035 19.2072H58.2975C58.0582 19.2072 57.8744 18.9836 57.9121 18.7348L59.8084 6.14234C59.8583 5.81036 60.1309 5.56592 60.4512 5.56592V5.56635ZM62.8967 11.9278C64.1402 11.9278 65.4258 11.9278 65.6815 10.1656C65.7751 9.5467 65.7006 9.09856 65.4544 8.79692C65.0418 8.29157 64.2425 8.29157 63.3964 8.29157H63.0722C62.8798 8.29157 62.7164 8.43806 62.6869 8.63699L62.1902 11.9278H62.8967ZM76.908 10.1088H79.1515C79.392 10.1088 79.5758 10.3342 79.539 10.5812L78.3249 18.6303C78.2746 18.9627 78.002 19.2067 77.6817 19.2067H75.6601C75.4196 19.2067 75.2358 18.9831 75.2735 18.733L75.3736 18.0795C75.3736 18.0795 74.2653 19.4261 72.2663 19.4261C71.1017 19.4261 70.1243 19.0741 69.4386 18.2299C68.693 17.3111 68.3892 15.9944 68.6029 14.617C69.016 11.8563 71.1342 9.88778 73.6147 9.88778C74.6966 9.88778 75.7798 10.1348 76.2656 10.8738L76.4234 11.1121L76.5227 10.4542C76.5345 10.3599 76.58 10.273 76.6508 10.2095C76.7216 10.146 76.8129 10.1103 76.908 10.1088ZM73.4921 16.9314C74.7902 16.9314 75.8097 16.0295 76.0251 14.686C76.1243 14.0354 75.9887 13.4451 75.645 13.0217C75.3038 12.6035 74.7855 12.3816 74.1479 12.3816C72.8697 12.3816 71.8359 13.3129 71.6322 14.6448C71.5282 15.2983 71.653 15.8852 71.9846 16.2973C72.3192 16.7121 72.8415 16.9314 73.4921 16.9314Z" fill="#179BD7"/>
<path d="M81.8005 5.91184L79.876 18.7353C79.8383 18.9836 80.0221 19.2077 80.2613 19.2077H82.1958C82.5174 19.2077 82.79 18.9637 82.8394 18.6313L84.737 6.03882C84.7747 5.79049 84.591 5.56555 84.3517 5.56555H82.1854C81.9942 5.56642 81.83 5.71291 81.8005 5.91184Z" fill="#179BD7"/>
<path d="M5.00528 21.6552L5.36373 19.2697L4.56534 19.2502H0.751953L3.40199 1.64812C3.41004 1.59509 3.43605 1.54644 3.47568 1.5103C3.51479 1.47559 3.56513 1.4562 3.61741 1.45569H10.047C12.1817 1.45569 13.655 1.92073 14.4239 2.83953C14.7845 3.27033 15.0142 3.7202 15.1252 4.21601C15.2422 4.73609 15.244 5.35672 15.13 6.11431L15.1217 6.16978V6.65519L15.4823 6.86929C15.7858 7.03831 16.0276 7.23118 16.2127 7.45221C16.5209 7.8206 16.7207 8.28867 16.8048 8.84386C16.8915 9.41465 16.8628 10.0942 16.7207 10.8635C16.556 11.7476 16.2898 12.5182 15.931 13.1488C15.6002 13.7296 15.1794 14.2115 14.6796 14.5851C14.2028 14.9396 13.6359 15.2092 12.9948 15.3813C12.3737 15.5507 11.6655 15.6361 10.8888 15.6361H10.3886C10.0306 15.6361 9.68294 15.7713 9.41031 16.0132C9.13498 16.2623 8.95467 16.5993 8.90015 16.9666L8.86244 17.1816L8.22963 21.3856L8.20058 21.5403C8.19278 21.5889 8.17978 21.6136 8.16071 21.63C8.14234 21.6458 8.11904 21.6547 8.09483 21.6552H5.00528Z" fill="#253B80"/>
<path d="M15.8231 6.22559C15.8041 6.35416 15.7821 6.48577 15.7572 6.62041C14.9094 11.1811 12.008 12.7565 8.30341 12.7565H6.41665C5.96371 12.7565 5.58185 13.101 5.5112 13.5695L4.5455 19.986L4.27157 21.805C4.22562 22.1123 4.45188 22.3897 4.74792 22.3897H8.09406C8.48979 22.3897 8.82657 22.088 8.88898 21.6789L8.92193 21.5003L9.55171 17.3128L9.59245 17.0831C9.654 16.6723 9.99122 16.3706 10.3874 16.3706H10.888C14.1297 16.3706 16.6675 14.992 17.4091 11.0021C17.719 9.33566 17.5586 7.94402 16.7385 6.9654C16.4906 6.67025 16.1829 6.42538 15.8231 6.22559Z" fill="#179BD7"/>
<path d="M14.934 5.85459C14.6637 5.77289 14.3883 5.70889 14.1096 5.66301C13.6012 5.57675 13.0438 5.53601 12.4469 5.53601H7.40692C7.28296 5.53601 7.16507 5.56548 7.05931 5.61836C6.82698 5.73539 6.65448 5.96598 6.61287 6.24815L5.54011 13.3622L5.50977 13.5698C5.57998 13.1017 5.96184 12.7567 6.41522 12.7567H8.30154C12.0066 12.7567 14.9076 11.1802 15.7554 6.62004C15.7805 6.48538 15.8025 6.35391 15.8213 6.22561C15.5984 6.10247 15.3652 5.9992 15.1243 5.917C15.0613 5.89523 14.9976 5.87442 14.934 5.85459Z" fill="#222D65"/>
<path d="M6.61413 6.24854C6.63266 6.11555 6.68295 5.98898 6.76073 5.87952C6.83851 5.77007 6.9415 5.68094 7.061 5.61968C7.16719 5.56637 7.28465 5.53733 7.40862 5.53733H12.4482C13.0455 5.53733 13.6024 5.57807 14.1113 5.66389C14.4559 5.72099 14.7954 5.80578 15.1264 5.91743C15.3769 6.00411 15.6094 6.10682 15.8238 6.22557C16.0761 4.54008 15.8216 3.39287 14.9517 2.35358C13.9925 1.20983 12.2618 0.720093 10.047 0.720093H3.6169C3.16483 0.720093 2.77863 1.06465 2.70885 1.53358L0.0302024 19.3173C-0.0222436 19.6692 0.236952 19.9865 0.575467 19.9865H4.54533L5.54223 13.3624L6.61413 6.24854Z" fill="#253B80"/>
</g>
</g>
<defs>
<clipPath id="clip0_88_5637">
<rect width="85" height="21.67" fill="white" transform="translate(0 0.720093)"/>
</clipPath>
</defs>
</svg>
