<svg width="18" height="19" viewBox="0 0 18 19" fill="none" xmlns="http://www.w3.org/2000/svg">
<g clip-path="url(#clip0_88_5619)">
<path d="M9.00938 16.752C12.9814 16.752 16.2014 13.532 16.2014 9.55998C16.2014 5.58795 12.9814 2.36798 9.00938 2.36798C5.03735 2.36798 1.81738 5.58795 1.81738 9.55998C1.81738 13.532 5.03735 16.752 9.00938 16.752Z" stroke="#707070" stroke-width="1.79844"/>
<path d="M7.21191 7.11985C7.46877 5.45028 10.5511 5.45028 10.8079 7.11985C11.0648 8.78943 8.9457 8.78943 8.9457 10.1379M9.01634 13.156H9.00991V13.1624H9.01634V13.156Z" stroke="#707070" stroke-width="1.79844" stroke-linecap="round" stroke-linejoin="round"/>
<path d="M9.00932 13.1561C9.08027 13.1561 9.13778 13.0986 9.13778 13.0276C9.13778 12.9567 9.08027 12.8992 9.00932 12.8992C8.93837 12.8992 8.88086 12.9567 8.88086 13.0276C8.88086 13.0986 8.93837 13.1561 9.00932 13.1561Z" stroke="#707070" stroke-width="1.79844"/>
</g>
<defs>
<clipPath id="clip0_88_5619">
<rect width="17.98" height="17.98" fill="white" transform="translate(0.0195312 0.570007)"/>
</clipPath>
</defs>
</svg>
