<svg width="88" height="88" viewBox="0 0 88 88" fill="none" xmlns="http://www.w3.org/2000/svg">
<g filter="url(#filter0_d_267_2235)">
<circle cx="44" cy="42" r="42" fill="#34383B"/>
</g>
<path d="M33.975 54.4189H50.467C51.0565 54.4192 51.6272 54.2108 52.0778 53.8302C52.5281 53.4498 52.8292 52.9221 52.9275 52.3408L57.25 26.572C57.3499 25.9792 57.6608 25.4424 58.1251 25.0606C58.5894 24.6787 59.176 24.4775 59.777 24.4938H61.4395" stroke="white" stroke-width="2.49375" stroke-linecap="round" stroke-linejoin="round"/>
<path d="M36.9907 59.4225C36.6464 59.4225 36.3673 59.1433 36.3673 58.799C36.3673 58.4547 36.6464 58.1756 36.9907 58.1756" stroke="white" stroke-width="2.49375"/>
<path d="M36.9907 59.4225C37.335 59.4225 37.6142 59.1433 37.6142 58.799C37.6142 58.4547 37.335 58.1756 36.9907 58.1756" stroke="white" stroke-width="2.49375"/>
<path d="M49.5772 59.4225C49.2329 59.4225 48.9537 59.1433 48.9537 58.799C48.9537 58.4547 49.2329 58.1756 49.5772 58.1756" stroke="white" stroke-width="2.49375"/>
<path d="M49.5773 59.4225C49.9216 59.4225 50.2007 59.1433 50.2007 58.799C50.2007 58.4547 49.9216 58.1756 49.5773 58.1756" stroke="white" stroke-width="2.49375"/>
<path d="M53.9253 46.9375H33.7759C32.6728 46.9265 31.6045 46.5501 30.7381 45.8674C29.8718 45.1844 29.2562 44.2336 28.9879 43.1636L26.5274 33.5211C26.4855 33.3376 26.4847 33.1471 26.5249 32.9631C26.5652 32.7792 26.6455 32.6065 26.7601 32.4571C26.8763 32.3076 27.025 32.1864 27.1949 32.1029C27.3649 32.0193 27.5516 31.9756 27.741 31.975H56.3858" stroke="white" stroke-width="2.49375" stroke-linecap="round" stroke-linejoin="round"/>
<path d="M53.9255 31.9755L47.6911 25.7411C47.1028 25.1584 46.3081 24.8314 45.48 24.8314C44.6519 24.8314 43.8572 25.1584 43.2689 25.7411L37.0345 31.9755" stroke="white" stroke-width="2.49375" stroke-linecap="round" stroke-linejoin="round"/>
<path d="M41.4729 27.5525L34.1579 25.4079C33.7661 25.291 33.3549 25.2529 32.9482 25.2959C32.5416 25.3389 32.1474 25.4622 31.7887 25.6586C31.43 25.8549 31.1138 26.1205 30.8584 26.4399C30.603 26.7593 30.4136 27.1262 30.3009 27.5193L28.9875 31.9748" stroke="white" stroke-width="2.49375" stroke-linecap="round" stroke-linejoin="round"/>
<defs>
<filter id="filter0_d_267_2235" x="0.415094" y="0" width="87.1698" height="87.1698" filterUnits="userSpaceOnUse" color-interpolation-filters="sRGB">
<feFlood flood-opacity="0" result="BackgroundImageFix"/>
<feColorMatrix in="SourceAlpha" type="matrix" values="0 0 0 0 0 0 0 0 0 0 0 0 0 0 0 0 0 0 127 0" result="hardAlpha"/>
<feOffset dy="1.58491"/>
<feGaussianBlur stdDeviation="0.792453"/>
<feComposite in2="hardAlpha" operator="out"/>
<feColorMatrix type="matrix" values="0 0 0 0 0 0 0 0 0 0 0 0 0 0 0 0 0 0 0.25 0"/>
<feBlend mode="normal" in2="BackgroundImageFix" result="effect1_dropShadow_267_2235"/>
<feBlend mode="normal" in="SourceGraphic" in2="effect1_dropShadow_267_2235" result="shape"/>
</filter>
</defs>
</svg>
