<svg width="16" height="14" viewBox="0 0 16 14" fill="none" xmlns="http://www.w3.org/2000/svg">
<g clip-path="url(#clip0_47_3513)">
<path d="M7.64969 0.00488281C5.80305 0.00488281 5.5715 0.0127073 4.84627 0.0457987C4.12255 0.0788104 3.62826 0.19376 3.19578 0.361861C2.74865 0.535594 2.36946 0.768097 1.99143 1.14609C1.61342 1.52412 1.38093 1.90331 1.2072 2.35044C1.0391 2.78294 0.924147 3.27721 0.891136 4.00093C0.858044 4.72617 0.85022 4.95771 0.85022 6.80435C0.85022 8.65096 0.858044 8.8825 0.891136 9.60774C0.924147 10.3315 1.0391 10.8257 1.2072 11.2582C1.38093 11.7054 1.61343 12.0845 1.99143 12.4626C2.36946 12.8406 2.74865 13.0731 3.19578 13.2468C3.62828 13.4149 4.12255 13.5299 4.84627 13.5629C5.5715 13.596 5.80305 13.6038 7.64969 13.6038C9.49629 13.6038 9.72784 13.596 10.4531 13.5629C11.1768 13.5299 11.6711 13.4149 12.1036 13.2468C12.5507 13.0731 12.9299 12.8406 13.3079 12.4626C13.6859 12.0845 13.9184 11.7054 14.0922 11.2582C14.2602 10.8257 14.3752 10.3315 14.4082 9.60774C14.4413 8.8825 14.4491 8.65096 14.4491 6.80435C14.4491 4.95771 14.4413 4.72617 14.4082 4.00093C14.3752 3.27721 14.2602 2.78293 14.0922 2.35044C13.9184 1.90331 13.6859 1.52412 13.3079 1.14609C12.9299 0.768084 12.5507 0.535594 12.1036 0.361861C11.6711 0.19376 11.1768 0.0788104 10.4531 0.0457987C9.72784 0.0127073 9.49629 0.00488281 7.64969 0.00488281ZM7.64969 1.23001C9.4652 1.23001 9.68026 1.23694 10.3972 1.26966C11.0602 1.2999 11.4202 1.41066 11.6598 1.50377C11.9772 1.62712 12.2037 1.77446 12.4416 2.01241C12.6796 2.25033 12.8269 2.47683 12.9502 2.79422C13.0434 3.03382 13.1541 3.39384 13.1844 4.05678C13.2171 4.77375 13.224 4.98881 13.224 6.80436C13.224 8.61987 13.2171 8.83493 13.1844 9.55192C13.1541 10.2149 13.0434 10.5749 12.9502 10.8145C12.8269 11.1319 12.6796 11.3584 12.4416 11.5963C12.2037 11.8342 11.9772 11.9816 11.6598 12.1049C11.4202 12.198 11.0602 12.3088 10.3972 12.339C9.68038 12.3717 9.46534 12.3787 7.64969 12.3787C5.834 12.3787 5.61901 12.3718 4.9021 12.339C4.23916 12.3088 3.87914 12.198 3.63954 12.1049C3.32216 11.9816 3.09565 11.8342 2.85773 11.5963C2.61981 11.3584 2.47244 11.1319 2.3491 10.8145C2.25597 10.5749 2.14521 10.2149 2.11499 9.55192C2.08228 8.83495 2.07533 8.61989 2.07533 6.80436C2.07533 4.98884 2.08227 4.77376 2.11499 4.05678C2.14522 3.39384 2.25599 3.03382 2.3491 2.79422C2.47244 2.47684 2.61978 2.25033 2.85773 2.01241C3.09565 1.77446 3.32215 1.62712 3.63954 1.50377C3.87914 1.41065 4.23916 1.29988 4.9021 1.26966C5.61907 1.23696 5.83414 1.23001 7.64969 1.23001ZM7.65184 9.09804C6.38386 9.09804 5.35598 8.07016 5.35598 6.80221C5.35598 5.53423 6.38386 4.50635 7.65184 4.50635C8.91979 4.50635 9.94767 5.53423 9.94767 6.80221C9.94767 8.07016 8.91979 9.09804 7.65184 9.09804ZM7.65184 3.26536C5.69847 3.26536 4.11499 4.84885 4.11499 6.80221C4.11499 8.75555 5.69847 10.339 7.65184 10.339C9.60517 10.339 11.1887 8.75555 11.1887 6.80221C11.1887 4.84885 9.60517 3.26536 7.65184 3.26536ZM12.2769 2.99331C12.2769 3.44409 11.9115 3.80949 11.4607 3.80949C11.01 3.80949 10.6445 3.44409 10.6445 2.99331C10.6445 2.54253 11.01 2.17711 11.4607 2.17711C11.9115 2.17711 12.2769 2.54253 12.2769 2.99331Z" fill="#34383B"/>
</g>
<defs>
<clipPath id="clip0_47_3513">
<rect width="15.3036" height="13.6032" fill="white"/>
</clipPath>
</defs>
</svg>
