<svg width="38" height="25" viewBox="0 0 38 25" fill="none" xmlns="http://www.w3.org/2000/svg">
<g clip-path="url(#clip0_88_5654)">
<g clip-path="url(#clip1_88_5654)">
<g clip-path="url(#clip2_88_5654)">
<path opacity="0.07" d="M35 0.560059H3C1.3 0.560059 0 1.86006 0 3.56006V21.5601C0 23.2601 1.4 24.5601 3 24.5601H35C36.7 24.5601 38 23.2601 38 21.5601V3.56006C38 1.86006 36.6 0.560059 35 0.560059Z" fill="black"/>
<path d="M35 1.56006C36.1 1.56006 37 2.46006 37 3.56006V21.5601C37 22.6601 36.1 23.5601 35 23.5601H3C1.9 23.5601 1 22.6601 1 21.5601V3.56006C1 2.46006 1.9 1.56006 3 1.56006H35Z" fill="white"/>
<path d="M17.1 10.16C17 10.16 17 10.16 16.9 10.26C16.7 10.26 16.6 10.16 16.5 10.06V9.86001L15.2 7.06001V6.96001C15.2 6.86001 15.3 6.76001 15.4 6.76001C15.5 6.76001 15.5 6.76001 15.5 6.86001L17 7.86001C17.1 7.96001 17.2 7.96001 17.4 7.96001C17.5 7.96001 17.6 7.96001 17.6 7.96001L24.7 4.76001C23.2 3.16001 21.2 2.26001 19 2.26001C15.1 2.26001 12 4.86001 12 8.16001C12 9.96001 12.9 11.56 14.4 12.56C14.5 12.66 14.6 12.76 14.6 12.96V13.06C14.5 13.46 14.3 14.16 14.3 14.26C14.3 14.36 14.3 14.36 14.3 14.46C14.3 14.56 14.4 14.66 14.5 14.66H14.6L16.1 13.76C16.2 13.66 16.3 13.66 16.5 13.66C16.6 13.66 16.6 13.66 16.7 13.66C17.4 13.86 18.2 13.96 19 13.96C22.9 13.96 26 11.36 26 8.06001C26 7.16001 25.7 6.26001 25.2 5.46001L17.1 10.16Z" fill="#39B54A"/>
<path d="M10.5004 20.3601L10.4004 20.5601C10.3004 20.7601 10.3004 20.9601 10.2004 21.1601C10.1004 20.8601 10.1004 20.5601 10.0004 20.2601L9.50039 18.4601H9.20039L8.60039 20.3601C8.50039 20.6601 8.40039 20.9601 8.40039 21.2601L8.30039 20.5601L7.80039 18.4601H7.40039L8.30039 21.8601H8.60039L9.20039 19.9601C9.30039 19.6601 9.40039 19.3601 9.40039 19.1601C9.40039 19.3601 9.50039 19.6601 9.60039 19.9601L10.1004 21.8601H10.4004L11.4004 18.5601H11.0004L10.5004 20.3601Z" fill="#505052"/>
<path d="M12.6001 19.3601C11.9001 19.3601 11.5001 19.8601 11.5001 20.6601C11.4001 21.2601 11.9001 21.8601 12.5001 21.8601H12.6001C12.9001 21.8601 13.1001 21.8601 13.4001 21.6601H13.5001L13.3001 21.4601C13.1001 21.5601 12.9001 21.5601 12.7001 21.5601C12.2001 21.5601 11.9001 21.2601 11.9001 20.6601H13.6001V20.5601C13.6001 20.3601 13.5001 20.0601 13.4001 19.8601C13.2001 19.5601 12.9001 19.3601 12.6001 19.3601ZM11.8001 20.3601C11.8001 19.9601 12.1001 19.6601 12.5001 19.6601C12.7001 19.6601 12.8001 19.6601 12.9001 19.8601C13.0001 19.9601 13.1001 20.1601 13.1001 20.3601H11.8001Z" fill="#505052"/>
<path d="M16.2995 21.4601C16.0995 21.5601 15.7995 21.5601 15.5995 21.5601C14.8995 21.5601 14.2995 21.0601 14.2995 20.4601C14.2995 20.3601 14.2995 20.2601 14.2995 20.2601C14.1995 19.5601 14.6995 18.8601 15.3995 18.8601C15.4995 18.8601 15.5995 18.8601 15.5995 18.8601C15.7995 18.8601 15.9995 18.8601 16.1995 18.9601L16.3995 18.6601C16.1995 18.5601 15.8995 18.4601 15.5995 18.4601C14.6995 18.4601 13.8995 19.1601 13.8995 20.0601C13.8995 20.1601 13.8995 20.1601 13.8995 20.2601C13.7995 21.1601 14.3995 21.8601 15.2995 21.9601C15.3995 21.9601 15.3995 21.9601 15.4995 21.9601C15.7995 21.9601 16.0995 21.8601 16.3995 21.7601L16.2995 21.4601Z" fill="#505052"/>
<path d="M18.0004 19.3601C17.8004 19.3601 17.6004 19.4601 17.5004 19.4601C17.4004 19.5601 17.3004 19.5601 17.3004 19.6601V18.3601H16.9004V21.8601H17.2004V20.3601C17.2004 20.2601 17.2004 20.2601 17.2004 20.1601C17.3004 19.8601 17.5004 19.6601 17.8004 19.6601C18.3004 19.6601 18.4004 20.1601 18.4004 20.3601V21.7601H18.8004V20.2601C18.8004 19.3601 18.1004 19.3601 18.0004 19.3601Z" fill="#505052"/>
<path d="M22.0998 18.8601H21.6998V19.3601H21.2998V19.6601H21.6998V21.0601C21.6998 21.2601 21.6998 21.4601 21.8998 21.6601C21.9998 21.7601 22.1998 21.8601 22.2998 21.8601C22.3998 21.8601 22.4998 21.8601 22.6998 21.7601H22.7998L22.5998 21.5601H22.3998C22.1998 21.5601 22.0998 21.4601 22.0998 21.1601V19.6601H22.7998V19.3601H22.0998V18.8601Z" fill="#505052"/>
<path d="M25.1004 18.4601C24.9004 18.4601 24.6004 18.4601 24.4004 18.5601V21.8601H24.8004V20.4601C24.9004 20.4601 25.0004 20.4601 25.1004 20.4601C25.5004 20.4601 25.8004 20.3601 26.1004 20.0601C26.3004 19.8601 26.4004 19.6601 26.3004 19.3601C26.3004 19.0601 26.2004 18.8601 26.0004 18.6601C25.8004 18.5601 25.5004 18.3601 25.1004 18.4601ZM24.7004 18.7601C24.8004 18.7601 25.0004 18.7601 25.1004 18.7601C25.6004 18.7601 25.9004 18.9601 25.9004 19.4601C25.9004 19.9601 25.6004 20.1601 25.0004 20.1601C24.9004 20.1601 24.8004 20.1601 24.6004 20.1601L24.7004 18.7601Z" fill="#505052"/>
<path d="M30.2004 19.3601L29.6004 20.8601C29.6004 20.9601 29.5004 21.0601 29.5004 21.2601L29.4004 20.9601L28.8004 19.4601H28.4004L29.3004 21.6601V21.7601C29.3004 21.7601 29.3004 21.7601 29.3004 21.8601C29.2004 22.0601 29.1004 22.2601 28.9004 22.4601C28.8004 22.5601 28.7004 22.6601 28.5004 22.6601H28.4004L28.7004 22.9601C28.8004 22.8601 28.9004 22.7601 29.0004 22.7601C29.4004 22.3601 29.6004 21.8601 29.8004 21.3601L30.5004 19.5601V19.4601L30.2004 19.3601Z" fill="#505052"/>
<path d="M21.0002 21.2601V20.3601C21.0002 19.7601 20.7002 19.3601 20.1002 19.3601C19.8002 19.3601 19.6002 19.4601 19.4002 19.5601L19.6002 19.8601C19.8002 19.7601 19.9002 19.6601 20.1002 19.6601C20.2002 19.6601 20.4002 19.6601 20.5002 19.7601C20.6002 19.8601 20.7002 20.0601 20.6002 20.2601C20.2002 20.2601 19.7002 20.3601 19.4002 20.6601C19.2002 20.7601 19.2002 20.9601 19.2002 21.2601C19.2002 21.6601 19.5002 21.9601 19.9002 21.9601C19.9002 21.9601 19.9002 21.9601 20.0002 21.9601C20.3002 21.9601 20.5002 21.8601 20.7002 21.6601V21.8601H21.1002V21.7601C21.0002 21.5601 21.0002 21.3601 21.0002 21.2601ZM19.8002 20.8601C20.1002 20.6601 20.4002 20.5601 20.7002 20.6601V21.0601V21.1601C20.6002 21.4601 20.3002 21.5601 20.0002 21.5601C19.8002 21.5601 19.6002 21.3601 19.6002 21.1601C19.6002 21.1601 19.6002 21.1601 19.6002 21.0601C19.6002 21.0601 19.7002 20.8601 19.8002 20.8601Z" fill="#505052"/>
<path d="M28.1004 21.2601V20.3601C28.1004 19.7601 27.8004 19.3601 27.2004 19.3601C27.0004 19.3601 26.7004 19.4601 26.5004 19.5601L26.7004 19.8601C26.9004 19.7601 27.0004 19.7601 27.2004 19.7601C27.3004 19.7601 27.5004 19.7601 27.6004 19.8601C27.7004 19.9601 27.8004 20.1601 27.8004 20.3601C27.4004 20.3601 26.9004 20.4601 26.6004 20.7601C26.5004 20.8601 26.4004 21.1601 26.4004 21.3601C26.4004 21.7601 26.7004 22.0601 27.1004 22.0601C27.1004 22.0601 27.1004 22.0601 27.2004 22.0601C27.5004 22.0601 27.7004 21.9601 27.9004 21.7601V21.9601H28.3004V21.8601C28.2004 21.5601 28.2004 21.3601 28.1004 21.2601ZM27.9004 21.0601V21.1601C27.8004 21.4601 27.5004 21.5601 27.3004 21.5601C27.1004 21.5601 26.9004 21.4601 26.9004 21.1601C26.9004 21.1601 26.9004 21.1601 26.9004 21.0601C26.9004 20.9601 26.9004 20.8601 27.0004 20.7601C27.3004 20.5601 27.6004 20.4601 27.9004 20.5601V21.0601Z" fill="#505052"/>
</g>
</g>
</g>
<defs>
<clipPath id="clip0_88_5654">
<rect width="38" height="24" fill="white" transform="translate(0 0.560059)"/>
</clipPath>
<clipPath id="clip1_88_5654">
<rect width="38" height="24" fill="white" transform="translate(0 0.560059)"/>
</clipPath>
<clipPath id="clip2_88_5654">
<rect width="38" height="24" fill="white" transform="translate(0 0.560059)"/>
</clipPath>
</defs>
</svg>
